<svg width="35" height="54" viewBox="0 0 35 54" fill="none" xmlns="http://www.w3.org/2000/svg">
<path d="M31.9163 46.8345L7.52112 38.9466V1L31.7527 8.82913C32.2882 9.00513 32.7572 9.36157 33.0909 9.84609C33.4245 10.3306 33.6053 10.9177 33.6066 11.5211V45.4944C33.6076 45.7149 33.5602 45.9326 33.4683 46.1296C33.3764 46.3266 33.2426 46.4974 33.0778 46.6281C32.913 46.7588 32.7219 46.8456 32.52 46.8814C32.3182 46.9173 32.1113 46.9012 31.9163 46.8345Z" fill="white"/>
<path d="M31.9163 46.8345L7.52112 38.9466V1L31.7527 8.82913C32.2882 9.00513 32.7572 9.36157 33.0909 9.84609C33.4245 10.3306 33.6053 10.9177 33.6066 11.5211V45.4944C33.6076 45.7149 33.5602 45.9326 33.4683 46.1296C33.3764 46.3266 33.2426 46.4974 33.0778 46.6281C32.913 46.7588 32.7219 46.8456 32.52 46.8814C32.3182 46.9173 32.1113 46.9012 31.9163 46.8345Z" stroke="#45413C" stroke-linecap="round" stroke-linejoin="round"/>
<path d="M12.8429 2.72805L7.52112 1V38.9466L12.8429 40.6629V2.72805Z" fill="#232323" stroke="#45413C" stroke-linecap="round" stroke-linejoin="round"/>
<path d="M7.52137 1L1 5.92554V21.2076L7.52137 14.9655V1Z" fill="#232323" stroke="#45413C" stroke-linecap="round" stroke-linejoin="round"/>
<path opacity="0.15" d="M16.4856 53.9936C24.767 53.9936 31.4804 53.0515 31.4804 51.8894C31.4804 50.7273 24.767 49.7852 16.4856 49.7852C8.20425 49.7852 1.49084 50.7273 1.49084 51.8894C1.49084 53.0515 8.20425 53.9936 16.4856 53.9936Z" fill="#45413C"/>
<path d="M25.384 50.3964L30.335 46.329V11.8973L25.384 15.5767V50.3964Z" fill="white"/>
<path d="M25.384 15.5767V21.1841L30.335 17.4929V11.8973L25.384 15.5767Z" fill="#FFFEF2"/>
<path d="M25.384 50.3964L30.335 46.329V11.8973L25.384 15.5767V50.3964Z" stroke="#45413C" stroke-linecap="round" stroke-linejoin="round"/>
<path d="M7.52144 4.51489L2.63586 8.20611L25.4498 15.5768L30.3354 11.8973L7.52144 4.51489Z" fill="#FFFEF2" stroke="#45413C" stroke-linecap="round" stroke-linejoin="round"/>
<path d="M25.3952 51.7483L1.93786 44.166C1.6672 44.0798 1.42965 43.9016 1.26063 43.658C1.09162 43.4144 1.00019 43.1184 1 42.8142V5.92554L25.2098 13.7547C25.7471 13.9273 26.2181 14.2829 26.5522 14.7682C26.8864 15.2534 27.0659 15.8423 27.0637 16.4467V50.467C27.0554 50.6798 27.0021 50.8877 26.9079 51.075C26.8137 51.2622 26.681 51.4238 26.5201 51.5474C26.3592 51.671 26.1742 51.7534 25.9792 51.7882C25.7843 51.823 25.5845 51.8094 25.3952 51.7483Z" fill="white"/>
<path d="M25.2098 13.7547L1 5.92554V10.0517L25.2098 17.8808C25.7471 18.0535 26.2181 18.4091 26.5522 18.8943C26.8864 19.3796 27.0659 19.9685 27.0637 20.5728V16.4467C27.0659 15.8423 26.8864 15.2534 26.5522 14.7682C26.2181 14.2829 25.7471 13.9273 25.2098 13.7547Z" fill="white"/>
<path d="M25.3952 51.7483L1.93786 44.166C1.6672 44.0798 1.42965 43.9016 1.26063 43.658C1.09162 43.4144 1.00019 43.1184 1 42.8142V5.92554L25.2098 13.7547C25.7471 13.9273 26.2181 14.2829 26.5522 14.7682C26.8864 15.2534 27.0659 15.8423 27.0637 16.4467V50.467C27.0554 50.6798 27.0021 50.8877 26.9079 51.075C26.8137 51.2622 26.681 51.4238 26.5201 51.5474C26.3592 51.671 26.1742 51.7534 25.9792 51.7882C25.7842 51.823 25.5845 51.8094 25.3952 51.7483Z" stroke="#45413C" stroke-linecap="round" stroke-linejoin="round"/>
<path d="M6.3327 7.64183L1 5.92554V42.8142C1.00019 43.1184 1.09162 43.4144 1.26063 43.658C1.42965 43.9016 1.6672 44.0798 1.93786 44.166L6.29998 45.5884L6.3327 7.64183Z" fill="#232323"/>
<path d="M1 5.92554V10.0517L6.3327 11.768V7.64183L1 5.92554Z" fill="#343434"/>
<path d="M6.3327 7.64183L1 5.92554V42.8142C1.00019 43.1184 1.09162 43.4144 1.26063 43.658C1.42965 43.9016 1.6672 44.0798 1.93786 44.166L6.29998 45.5884L6.3327 7.64183Z" stroke="#45413C" stroke-linecap="round" stroke-linejoin="round"/>
<path d="M20.6407 25.757L12.3308 23.1238V17.4929L20.6407 20.1379V25.757Z" fill="white" stroke="#45413C" stroke-linecap="round" stroke-linejoin="round"/>
</svg>
