<svg width="356" height="200" viewBox="0 0 356 200" fill="none" xmlns="http://www.w3.org/2000/svg">
<g clip-path="url(#clip0_1_1041)">
<path d="M49.9754 147.765C48.871 150.296 50.0231 153.259 52.6186 154.202C62.2903 157.714 72.5691 159.316 82.8823 158.899C94.8635 158.415 106.579 155.22 117.147 149.554C127.714 143.887 136.859 135.898 143.893 126.186C150.926 116.475 155.665 105.294 157.753 93.4864C159.841 81.6786 159.223 69.551 155.946 58.0165C152.669 46.4819 146.819 35.8409 138.835 26.8943C130.851 17.9478 120.942 10.9287 109.853 6.36555C100.308 2.43768 90.1031 0.417504 79.8134 0.400489C77.052 0.395923 74.9537 2.7842 75.1232 5.54042L75.7162 15.1841C75.8857 17.9403 78.26 20.0153 81.0207 20.0773C88.3374 20.2416 95.5763 21.7522 102.371 24.5481C110.709 27.9796 118.161 33.2579 124.165 39.9857C130.169 46.7135 134.569 54.7156 137.033 63.3896C139.497 72.0635 139.961 81.1835 138.391 90.063C136.821 98.9425 133.258 107.35 127.968 114.653C122.679 121.956 115.802 127.964 107.855 132.225C99.9085 136.487 91.0985 138.89 82.0886 139.253C74.7476 139.55 67.4296 138.487 60.5002 136.132C57.8856 135.244 54.9437 136.379 53.8394 138.91L49.9754 147.765Z" fill="#EDEDED"/>
<path d="M97.6461 12.5948C99.0505 7.35009 95.9375 1.89499 90.5594 1.15009C83.3155 0.146777 75.9518 0.148363 68.6784 1.16773C58.1517 2.64304 48.0291 6.22013 38.9126 11.6863C29.7961 17.1524 21.8719 24.396 15.6112 32.9862C9.35048 41.5765 4.88112 51.338 2.46888 61.6903C0.0566325 72.0426 -0.249229 82.7743 1.56948 93.2471C3.38819 103.72 7.29433 113.72 13.0556 122.653C18.8169 131.586 26.3157 139.269 35.106 145.246C41.1797 149.375 47.7843 152.631 54.7255 154.934C59.8789 156.643 65.0826 153.125 66.1412 147.8C67.1998 142.475 63.6962 137.375 58.6169 135.457C54.2353 133.802 50.0531 131.632 46.1609 128.986C39.5506 124.492 33.9115 118.714 29.579 111.996C25.2465 105.279 22.3091 97.7586 20.9414 89.883C19.5738 82.0074 19.8038 73.9372 21.6178 66.1523C23.4318 58.3673 26.7927 51.0267 31.5008 44.5668C36.2089 38.107 42.1679 32.6598 49.0235 28.5493C55.879 24.4387 63.4912 21.7488 71.4073 20.6393C76.0684 19.9861 80.7788 19.8886 85.4406 20.341C90.8447 20.8654 96.2418 17.8395 97.6461 12.5948Z" fill="#CFCEFF"/>
<path d="M54 69.5C55.933 69.5 57.5 67.933 57.5 66C57.5 64.067 55.933 62.5 54 62.5C52.067 62.5 50.5 64.067 50.5 66C50.5 67.933 52.067 69.5 54 69.5Z" fill="#CFCEFF"/>
<path d="M59.25 71.25H48.75C48.2859 71.25 47.8408 71.4344 47.5126 71.7626C47.1844 72.0908 47 72.5359 47 73V85.25H50.5V97.5H57.5V85.25H61V73C61 72.5359 60.8156 72.0908 60.4874 71.7626C60.1592 71.4344 59.7141 71.25 59.25 71.25Z" fill="#CFCEFF"/>
<path d="M79.5241 91.2983C78.1037 91.2983 76.8324 91.032 75.7102 90.4993C74.5881 89.9595 73.6967 89.2209 73.0362 88.2834C72.3828 87.3459 72.0348 86.2734 71.9922 85.0661H75.8274C75.8984 85.9609 76.2855 86.6925 76.9886 87.2607C77.6918 87.8217 78.5369 88.1023 79.5241 88.1023C80.2983 88.1023 80.9872 87.9247 81.5909 87.5696C82.1946 87.2145 82.6705 86.7209 83.0185 86.0888C83.3665 85.4567 83.5369 84.7358 83.5298 83.9261C83.5369 83.1023 83.3629 82.3707 83.0078 81.7315C82.6527 81.0923 82.1662 80.5916 81.5483 80.2294C80.9304 79.8601 80.2202 79.6754 79.4176 79.6754C78.7642 79.6683 78.1214 79.7891 77.4893 80.0376C76.8572 80.2862 76.3565 80.6129 75.9872 81.0178L72.4183 80.4318L73.5582 69.1818H86.2145V72.4844H76.8288L76.2003 78.2692H76.3281C76.733 77.7933 77.3047 77.3991 78.0433 77.0866C78.782 76.767 79.5916 76.6072 80.4723 76.6072C81.7933 76.6072 82.9723 76.9197 84.0092 77.5447C85.0462 78.1626 85.8629 79.0149 86.4595 80.1016C87.0561 81.1882 87.3544 82.4311 87.3544 83.8303C87.3544 85.272 87.0206 86.5575 86.353 87.6868C85.6925 88.8089 84.7727 89.6932 83.5938 90.3395C82.4219 90.9787 81.0653 91.2983 79.5241 91.2983ZM98.7536 91.2983C97.2195 91.2983 95.8558 91.0355 94.6626 90.5099C93.4766 89.9844 92.5391 89.2528 91.8501 88.3153C91.1612 87.3778 90.7955 86.2947 90.7528 85.0661H94.7585C94.794 85.6555 94.9893 86.1705 95.3445 86.6108C95.6996 87.044 96.1719 87.3814 96.7614 87.6229C97.3509 87.8643 98.0114 87.9851 98.7429 87.9851C99.5241 87.9851 100.217 87.8501 100.82 87.5803C101.424 87.3033 101.896 86.9197 102.237 86.4297C102.578 85.9396 102.745 85.375 102.738 84.7358C102.745 84.0753 102.575 83.4929 102.227 82.9886C101.879 82.4844 101.374 82.0902 100.714 81.8061C100.06 81.522 99.272 81.38 98.3487 81.38H96.4205V78.3331H98.3487C99.1087 78.3331 99.7727 78.2017 100.341 77.9389C100.916 77.6761 101.367 77.3068 101.694 76.831C102.021 76.348 102.18 75.7905 102.173 75.1584C102.18 74.5405 102.042 74.0043 101.758 73.5497C101.481 73.0881 101.087 72.7294 100.575 72.4737C100.071 72.218 99.478 72.0902 98.7962 72.0902C98.1286 72.0902 97.5107 72.2109 96.9425 72.4524C96.3743 72.6939 95.9162 73.0384 95.5682 73.4858C95.2202 73.9261 95.0355 74.4517 95.0142 75.0625H91.2109C91.2393 73.8409 91.5909 72.7685 92.2656 71.8452C92.9474 70.9148 93.8565 70.1903 94.9929 69.6719C96.1293 69.1463 97.4041 68.8835 98.8175 68.8835C100.273 68.8835 101.538 69.157 102.61 69.7038C103.69 70.2436 104.524 70.9716 105.114 71.8878C105.703 72.804 105.998 73.8161 105.998 74.924C106.005 76.1527 105.643 77.1825 104.911 78.0135C104.187 78.8445 103.235 79.3878 102.056 79.6435V79.8139C103.59 80.027 104.766 80.5952 105.582 81.5185C106.406 82.4347 106.815 83.5746 106.808 84.9382C106.808 86.1598 106.46 87.2536 105.763 88.2195C105.075 89.1783 104.123 89.9311 102.908 90.478C101.701 91.0249 100.316 91.2983 98.7536 91.2983ZM117.517 88.2727V87.5057C117.517 86.9564 117.631 86.4545 117.858 86C118.09 85.5407 118.426 85.1738 118.866 84.8991C119.311 84.6198 119.849 84.4801 120.479 84.4801C121.122 84.4801 121.662 84.6174 122.098 84.892C122.533 85.1667 122.863 85.5336 123.085 85.9929C123.312 86.4522 123.426 86.9564 123.426 87.5057V88.2727C123.426 88.822 123.312 89.3262 123.085 89.7855C122.858 90.2401 122.524 90.607 122.084 90.8864C121.648 91.161 121.113 91.2983 120.479 91.2983C119.839 91.2983 119.3 91.161 118.859 90.8864C118.419 90.607 118.085 90.2401 117.858 89.7855C117.631 89.3262 117.517 88.822 117.517 88.2727ZM119.172 87.5057V88.2727C119.172 88.6799 119.269 89.0492 119.463 89.3807C119.657 89.7121 119.996 89.8778 120.479 89.8778C120.957 89.8778 121.291 89.7121 121.48 89.3807C121.669 89.0492 121.764 88.6799 121.764 88.2727V87.5057C121.764 87.0985 121.672 86.7292 121.487 86.3977C121.307 86.0663 120.971 85.9006 120.479 85.9006C120.005 85.9006 119.669 86.0663 119.47 86.3977C119.271 86.7292 119.172 87.0985 119.172 87.5057ZM110.202 79.9489V79.1818C110.202 78.6326 110.315 78.1283 110.542 77.669C110.774 77.2098 111.111 76.8428 111.551 76.5682C111.996 76.2936 112.533 76.1562 113.163 76.1562C113.807 76.1562 114.347 76.2936 114.782 76.5682C115.218 76.8428 115.547 77.2098 115.77 77.669C115.992 78.1283 116.104 78.6326 116.104 79.1818V79.9489C116.104 80.4981 115.99 81.0024 115.763 81.4616C115.54 81.9162 115.209 82.2831 114.768 82.5625C114.333 82.8371 113.798 82.9744 113.163 82.9744C112.519 82.9744 111.977 82.8371 111.537 82.5625C111.101 82.2831 110.77 81.9162 110.542 81.4616C110.315 81.0024 110.202 80.4981 110.202 79.9489ZM111.863 79.1818V79.9489C111.863 80.3561 111.958 80.7254 112.148 81.0568C112.342 81.3883 112.68 81.554 113.163 81.554C113.637 81.554 113.968 81.3883 114.157 81.0568C114.352 80.7254 114.449 80.3561 114.449 79.9489V79.1818C114.449 78.7746 114.356 78.4053 114.172 78.0739C113.987 77.7424 113.651 77.5767 113.163 77.5767C112.69 77.5767 112.354 77.7424 112.155 78.0739C111.961 78.4053 111.863 78.7746 111.863 79.1818ZM110.876 91L120.876 76.4545H122.574L112.574 91H110.876Z" fill="black"/>
</g>
<g clip-path="url(#clip1_1_1041)">
<path d="M215.811 122.256C213.548 123.839 212.985 126.967 214.707 129.126C222.068 138.353 231.411 145.837 242.068 151.009C254.228 156.91 267.694 159.604 281.187 158.836C294.681 158.068 307.754 153.863 319.165 146.621C330.577 139.379 339.947 129.339 346.386 117.457C352.826 105.574 356.121 92.2422 355.958 78.7278C355.796 65.2134 352.181 51.9649 345.457 40.2406C338.733 28.5164 329.124 18.7056 317.542 11.7402C307.39 5.63533 296.019 1.8938 284.269 0.76425C281.521 0.499995 279.207 2.68035 279.117 5.44029L278.8 15.097C278.709 17.8569 280.878 20.146 283.621 20.4674C292.018 21.4513 300.13 24.2128 307.408 28.5898C316.118 33.8278 323.345 41.2055 328.401 50.0221C333.457 58.8388 336.175 68.8016 336.298 78.9645C336.42 89.1273 333.942 99.1528 329.1 108.089C324.257 117.024 317.211 124.574 308.629 130.02C300.048 135.466 290.217 138.628 280.07 139.206C269.923 139.783 259.796 137.757 250.653 133.32C243.012 129.612 236.269 124.323 230.86 117.825C229.094 115.703 225.992 115.136 223.729 116.718L215.811 122.256Z" fill="#EDEDED"/>
<path d="M297.005 13.2713C298.594 8.07945 295.675 2.51768 290.327 1.58324C276.424 -0.845722 262.061 0.471325 248.742 5.48679C232.343 11.6624 218.451 23.0973 209.239 38.0042C200.027 52.9112 196.013 70.4501 197.825 87.8799C199.297 102.035 204.544 115.471 212.935 126.819C216.163 131.184 222.442 131.307 226.375 127.564C230.308 123.82 230.382 117.633 227.335 113.139C221.846 105.043 218.404 95.6758 217.382 85.8468C216.019 72.7397 219.038 59.5504 225.965 48.3403C232.893 37.1303 243.339 28.5313 255.671 23.8872C264.919 20.4047 274.837 19.2934 284.533 20.5814C289.915 21.2963 295.416 18.4631 297.005 13.2713Z" fill="#FFED9F"/>
<path d="M251 69.5C252.933 69.5 254.5 67.933 254.5 66C254.5 64.067 252.933 62.5 251 62.5C249.067 62.5 247.5 64.067 247.5 66C247.5 67.933 249.067 69.5 251 69.5Z" fill="#FFED9F"/>
<path d="M256.159 72.447C256.044 72.0982 255.821 71.7948 255.523 71.5798C255.226 71.3649 254.867 71.2495 254.5 71.25H247.5C247.133 71.2498 246.775 71.3653 246.477 71.5802C246.179 71.7951 245.957 72.0984 245.841 72.447L242.341 82.947L245.447 83.9848L244 90.5H247.5V97.5H254.5V90.5H258L256.553 83.983L259.659 82.9453L256.159 72.447Z" fill="#FFED9F"/>
<path d="M268.545 85.9517V82.8089L277.803 68.1818H280.423V72.6562H278.825L272.593 82.532V82.7024H285.516V85.9517H268.545ZM278.953 90V84.9929L278.996 83.5866V68.1818H282.724V90H278.953ZM289.718 90L298.998 71.6335V71.4844H288.227V68.1818H303.088V71.5589L293.82 90H289.718ZM313.579 87.2727V86.5057C313.579 85.9564 313.693 85.4545 313.92 85C314.152 84.5407 314.488 84.1738 314.929 83.8991C315.374 83.6198 315.911 83.4801 316.541 83.4801C317.185 83.4801 317.725 83.6174 318.16 83.892C318.596 84.1667 318.925 84.5336 319.148 84.9929C319.375 85.4522 319.488 85.9564 319.488 86.5057V87.2727C319.488 87.822 319.375 88.3262 319.148 88.7855C318.92 89.2401 318.586 89.607 318.146 89.8864C317.711 90.161 317.175 90.2983 316.541 90.2983C315.902 90.2983 315.362 90.161 314.922 89.8864C314.481 89.607 314.148 89.2401 313.92 88.7855C313.693 88.3262 313.579 87.822 313.579 87.2727ZM315.234 86.5057V87.2727C315.234 87.6799 315.331 88.0492 315.525 88.3807C315.72 88.7121 316.058 88.8778 316.541 88.8778C317.019 88.8778 317.353 88.7121 317.542 88.3807C317.732 88.0492 317.827 87.6799 317.827 87.2727V86.5057C317.827 86.0985 317.734 85.7292 317.55 85.3977C317.37 85.0663 317.033 84.9006 316.541 84.9006C316.068 84.9006 315.731 85.0663 315.532 85.3977C315.334 85.7292 315.234 86.0985 315.234 86.5057ZM306.264 78.9489V78.1818C306.264 77.6326 306.378 77.1283 306.605 76.669C306.837 76.2098 307.173 75.8428 307.613 75.5682C308.059 75.2936 308.596 75.1562 309.226 75.1562C309.87 75.1562 310.409 75.2936 310.845 75.5682C311.281 75.8428 311.61 76.2098 311.832 76.669C312.055 77.1283 312.166 77.6326 312.166 78.1818V78.9489C312.166 79.4981 312.052 80.0024 311.825 80.4616C311.603 80.9162 311.271 81.2831 310.831 81.5625C310.395 81.8371 309.86 81.9744 309.226 81.9744C308.582 81.9744 308.04 81.8371 307.599 81.5625C307.164 81.2831 306.832 80.9162 306.605 80.4616C306.378 80.0024 306.264 79.4981 306.264 78.9489ZM307.926 78.1818V78.9489C307.926 79.3561 308.021 79.7254 308.21 80.0568C308.404 80.3883 308.743 80.554 309.226 80.554C309.699 80.554 310.031 80.3883 310.22 80.0568C310.414 79.7254 310.511 79.3561 310.511 78.9489V78.1818C310.511 77.7746 310.419 77.4053 310.234 77.0739C310.05 76.7424 309.713 76.5767 309.226 76.5767C308.752 76.5767 308.416 76.7424 308.217 77.0739C308.023 77.4053 307.926 77.7746 307.926 78.1818ZM306.939 90L316.939 75.4545H318.636L308.636 90H306.939Z" fill="black"/>
</g>
<path d="M44.2102 196.159C43.392 196.159 42.6648 196.019 42.0284 195.739C41.3958 195.458 40.8958 195.068 40.5284 194.568C40.161 194.068 39.9659 193.491 39.9432 192.835H42.0795C42.0985 193.15 42.2027 193.424 42.392 193.659C42.5814 193.89 42.8333 194.07 43.1477 194.199C43.4621 194.328 43.8144 194.392 44.2045 194.392C44.6212 194.392 44.9905 194.32 45.3125 194.176C45.6345 194.028 45.8864 193.824 46.0682 193.562C46.25 193.301 46.339 193 46.3352 192.659C46.339 192.307 46.2481 191.996 46.0625 191.727C45.8769 191.458 45.608 191.248 45.2557 191.097C44.9072 190.945 44.4867 190.869 43.9943 190.869H42.9659V189.244H43.9943C44.3996 189.244 44.7538 189.174 45.0568 189.034C45.3636 188.894 45.6042 188.697 45.7784 188.443C45.9527 188.186 46.0379 187.888 46.0341 187.551C46.0379 187.222 45.964 186.936 45.8125 186.693C45.6648 186.447 45.4545 186.256 45.1818 186.119C44.9129 185.983 44.5966 185.915 44.233 185.915C43.8769 185.915 43.5473 185.979 43.2443 186.108C42.9413 186.237 42.697 186.42 42.5114 186.659C42.3258 186.894 42.2273 187.174 42.2159 187.5H40.1875C40.2027 186.848 40.3902 186.277 40.75 185.784C41.1136 185.288 41.5985 184.902 42.2045 184.625C42.8106 184.345 43.4905 184.205 44.2443 184.205C45.0208 184.205 45.6951 184.35 46.267 184.642C46.8428 184.93 47.2879 185.318 47.6023 185.807C47.9167 186.295 48.0739 186.835 48.0739 187.426C48.0777 188.081 47.8845 188.631 47.4943 189.074C47.108 189.517 46.6004 189.807 45.9716 189.943V190.034C46.7898 190.148 47.4167 190.451 47.8523 190.943C48.2917 191.432 48.5095 192.04 48.5057 192.767C48.5057 193.419 48.3201 194.002 47.9489 194.517C47.5814 195.028 47.0739 195.43 46.4261 195.722C45.7822 196.013 45.0436 196.159 44.2102 196.159ZM52.5497 194.409L52.4759 195.034C52.4228 195.511 52.3281 195.996 52.1918 196.489C52.0592 196.985 51.919 197.441 51.7713 197.858C51.6236 198.275 51.5043 198.602 51.4134 198.841H50.027C50.08 198.61 50.152 198.295 50.2429 197.898C50.3376 197.5 50.4285 197.053 50.5156 196.557C50.6027 196.061 50.6615 195.557 50.6918 195.045L50.7315 194.409H52.5497ZM58.1264 184.364V196H56.0185V186.415H55.9503L53.2287 188.153V186.222L56.1207 184.364H58.1264ZM61.5071 196L66.456 186.205V186.125H60.7116V184.364H68.6378V186.165L63.6946 196H61.5071ZM74.3736 196.159C73.5289 196.159 72.7789 196.017 72.1236 195.733C71.4721 195.449 70.9607 195.061 70.5895 194.568C70.2221 194.072 70.0402 193.509 70.044 192.881C70.0402 192.392 70.1463 191.943 70.3622 191.534C70.5781 191.125 70.8698 190.784 71.2372 190.511C71.6084 190.235 72.0213 190.059 72.4759 189.983V189.903C71.8774 189.771 71.3925 189.466 71.0213 188.989C70.6539 188.508 70.4721 187.953 70.4759 187.324C70.4721 186.725 70.6387 186.191 70.9759 185.722C71.313 185.252 71.7751 184.883 72.3622 184.614C72.9493 184.341 73.6198 184.205 74.3736 184.205C75.1198 184.205 75.7846 184.341 76.3679 184.614C76.955 184.883 77.4171 185.252 77.7543 185.722C78.0952 186.191 78.2656 186.725 78.2656 187.324C78.2656 187.953 78.0781 188.508 77.7031 188.989C77.3319 189.466 76.8527 189.771 76.2656 189.903V189.983C76.7202 190.059 77.1293 190.235 77.4929 190.511C77.8603 190.784 78.152 191.125 78.3679 191.534C78.5876 191.943 78.6974 192.392 78.6974 192.881C78.6974 193.509 78.5118 194.072 78.1406 194.568C77.7694 195.061 77.258 195.449 76.6065 195.733C75.9588 196.017 75.2145 196.159 74.3736 196.159ZM74.3736 194.534C74.8092 194.534 75.188 194.46 75.5099 194.312C75.8319 194.161 76.0819 193.949 76.2599 193.676C76.438 193.403 76.5289 193.089 76.5327 192.733C76.5289 192.362 76.4323 192.034 76.2429 191.75C76.0573 191.462 75.8016 191.237 75.4759 191.074C75.1539 190.911 74.7865 190.83 74.3736 190.83C73.9569 190.83 73.5857 190.911 73.2599 191.074C72.9342 191.237 72.6766 191.462 72.4872 191.75C72.3016 192.034 72.2107 192.362 72.2145 192.733C72.2107 193.089 72.2978 193.403 72.4759 193.676C72.6539 193.945 72.9039 194.155 73.2259 194.307C73.5516 194.458 73.9342 194.534 74.3736 194.534ZM74.3736 189.233C74.7296 189.233 75.044 189.161 75.3168 189.017C75.5933 188.873 75.8111 188.672 75.9702 188.415C76.1293 188.157 76.2107 187.86 76.2145 187.523C76.2107 187.189 76.1312 186.898 75.9759 186.648C75.8205 186.394 75.6046 186.199 75.3281 186.062C75.0516 185.922 74.7334 185.852 74.3736 185.852C74.0062 185.852 73.6823 185.922 73.402 186.062C73.1255 186.199 72.9096 186.394 72.7543 186.648C72.6027 186.898 72.5289 187.189 72.5327 187.523C72.5289 187.86 72.6046 188.157 72.7599 188.415C72.919 188.669 73.1368 188.869 73.4134 189.017C73.6937 189.161 74.0137 189.233 74.3736 189.233Z" fill="#474747"/>
<path d="M84.9915 191.705C84.9915 190.452 85.1539 189.3 85.4787 188.249C85.8068 187.195 86.2741 186.226 86.8807 185.341H87.9148C87.6761 185.669 87.4524 186.073 87.2436 186.554C87.0381 187.031 86.8575 187.557 86.7017 188.13C86.5459 188.7 86.4233 189.29 86.3338 189.9C86.2476 190.51 86.2045 191.111 86.2045 191.705C86.2045 192.493 86.2808 193.294 86.4332 194.106C86.5857 194.918 86.7912 195.672 87.0497 196.368C87.3082 197.064 87.5966 197.631 87.9148 198.068H86.8807C86.2741 197.183 85.8068 196.215 85.4787 195.165C85.1539 194.111 84.9915 192.957 84.9915 191.705ZM93.7427 196V185.818H94.916V189.577H95.0154C95.1016 189.444 95.2209 189.275 95.3734 189.07C95.5292 188.861 95.7512 188.675 96.0396 188.513C96.3313 188.347 96.7257 188.264 97.2228 188.264C97.8658 188.264 98.4326 188.425 98.9231 188.746C99.4136 189.068 99.7965 189.524 100.072 190.114C100.347 190.704 100.484 191.4 100.484 192.202C100.484 193.01 100.347 193.711 100.072 194.305C99.7965 194.895 99.4153 195.352 98.9281 195.677C98.4409 195.998 97.8791 196.159 97.2427 196.159C96.7522 196.159 96.3594 196.078 96.0645 195.915C95.7695 195.75 95.5424 195.562 95.3833 195.354C95.2243 195.142 95.1016 194.966 95.0154 194.827H94.8762V196H93.7427ZM94.8961 192.182C94.8961 192.759 94.9806 193.267 95.1497 193.708C95.3187 194.146 95.5656 194.489 95.8904 194.737C96.2153 194.982 96.613 195.105 97.0836 195.105C97.5742 195.105 97.9835 194.976 98.3116 194.717C98.6431 194.455 98.8916 194.104 99.0574 193.663C99.2264 193.219 99.3109 192.725 99.3109 192.182C99.3109 191.645 99.228 191.161 99.0623 190.73C98.8999 190.296 98.653 189.953 98.3216 189.701C97.9934 189.446 97.5808 189.318 97.0836 189.318C96.6064 189.318 96.2053 189.439 95.8805 189.681C95.5557 189.92 95.3104 190.254 95.1447 190.685C94.979 191.113 94.8961 191.612 94.8961 192.182ZM105.381 196.159C104.692 196.159 104.087 195.995 103.567 195.667C103.05 195.339 102.645 194.88 102.354 194.29C102.065 193.7 101.921 193.01 101.921 192.222C101.921 191.426 102.065 190.732 102.354 190.138C102.645 189.545 103.05 189.085 103.567 188.756C104.087 188.428 104.692 188.264 105.381 188.264C106.071 188.264 106.674 188.428 107.191 188.756C107.711 189.085 108.116 189.545 108.404 190.138C108.696 190.732 108.841 191.426 108.841 192.222C108.841 193.01 108.696 193.7 108.404 194.29C108.116 194.88 107.711 195.339 107.191 195.667C106.674 195.995 106.071 196.159 105.381 196.159ZM105.381 195.105C105.905 195.105 106.336 194.971 106.674 194.702C107.012 194.434 107.262 194.081 107.425 193.643C107.587 193.206 107.668 192.732 107.668 192.222C107.668 191.711 107.587 191.236 107.425 190.795C107.262 190.354 107.012 189.998 106.674 189.726C106.336 189.454 105.905 189.318 105.381 189.318C104.858 189.318 104.427 189.454 104.089 189.726C103.751 189.998 103.5 190.354 103.338 190.795C103.175 191.236 103.094 191.711 103.094 192.222C103.094 192.732 103.175 193.206 103.338 193.643C103.5 194.081 103.751 194.434 104.089 194.702C104.427 194.971 104.858 195.105 105.381 195.105ZM111.115 198.864C110.916 198.864 110.739 198.847 110.583 198.814C110.427 198.784 110.319 198.754 110.26 198.724L110.558 197.69C110.843 197.763 111.095 197.79 111.314 197.77C111.532 197.75 111.726 197.652 111.895 197.477C112.068 197.304 112.225 197.024 112.368 196.636L112.586 196.04L109.762 188.364H111.035L113.143 194.449H113.223L115.331 188.364H116.603L113.362 197.114C113.216 197.508 113.035 197.835 112.82 198.093C112.605 198.355 112.354 198.549 112.069 198.675C111.788 198.801 111.469 198.864 111.115 198.864ZM123.561 190.074L122.507 190.372C122.441 190.196 122.343 190.026 122.214 189.86C122.088 189.691 121.915 189.552 121.697 189.442C121.478 189.333 121.198 189.278 120.857 189.278C120.389 189.278 120 189.386 119.688 189.602C119.38 189.814 119.226 190.084 119.226 190.412C119.226 190.704 119.332 190.934 119.544 191.103C119.756 191.272 120.088 191.413 120.538 191.526L121.672 191.804C122.355 191.97 122.863 192.223 123.198 192.565C123.533 192.903 123.7 193.339 123.7 193.872C123.7 194.31 123.574 194.701 123.322 195.045C123.074 195.39 122.726 195.662 122.278 195.861C121.831 196.06 121.311 196.159 120.717 196.159C119.938 196.159 119.294 195.99 118.783 195.652C118.273 195.314 117.95 194.82 117.814 194.17L118.928 193.892C119.034 194.303 119.234 194.611 119.529 194.817C119.827 195.022 120.217 195.125 120.697 195.125C121.244 195.125 121.679 195.009 122 194.777C122.325 194.542 122.487 194.26 122.487 193.932C122.487 193.667 122.394 193.445 122.209 193.266C122.023 193.083 121.738 192.947 121.354 192.858L120.081 192.56C119.382 192.394 118.868 192.137 118.54 191.789C118.215 191.438 118.053 190.999 118.053 190.472C118.053 190.041 118.174 189.66 118.415 189.328C118.661 188.997 118.994 188.737 119.415 188.548C119.839 188.359 120.32 188.264 120.857 188.264C121.612 188.264 122.205 188.43 122.636 188.761C123.071 189.093 123.379 189.53 123.561 190.074ZM131.91 191.705C131.91 192.957 131.746 194.111 131.417 195.165C131.093 196.215 130.627 197.183 130.02 198.068H128.986C129.225 197.74 129.447 197.336 129.653 196.855C129.861 196.378 130.044 195.854 130.199 195.284C130.355 194.711 130.476 194.119 130.562 193.509C130.652 192.896 130.697 192.295 130.697 191.705C130.697 190.916 130.62 190.115 130.468 189.303C130.315 188.491 130.11 187.737 129.851 187.041C129.593 186.345 129.305 185.778 128.986 185.341H130.02C130.627 186.226 131.093 187.195 131.417 188.249C131.746 189.3 131.91 190.452 131.91 191.705Z" fill="#A2A2A2"/>
<circle cx="30.5" cy="189.5" r="4.5" fill="#CFCEFF"/>
<path d="M237.034 196V194.477L241.074 190.517C241.46 190.127 241.782 189.78 242.04 189.477C242.297 189.174 242.491 188.881 242.619 188.597C242.748 188.312 242.812 188.009 242.812 187.688C242.812 187.32 242.729 187.006 242.562 186.744C242.396 186.479 242.167 186.275 241.875 186.131C241.583 185.987 241.252 185.915 240.881 185.915C240.498 185.915 240.163 185.994 239.875 186.153C239.587 186.309 239.364 186.53 239.205 186.818C239.049 187.106 238.972 187.449 238.972 187.847H236.966C236.966 187.108 237.134 186.466 237.472 185.92C237.809 185.375 238.273 184.953 238.864 184.653C239.458 184.354 240.14 184.205 240.909 184.205C241.689 184.205 242.375 184.35 242.966 184.642C243.557 184.934 244.015 185.333 244.341 185.841C244.67 186.348 244.835 186.928 244.835 187.58C244.835 188.015 244.752 188.443 244.585 188.864C244.419 189.284 244.125 189.75 243.705 190.261C243.288 190.773 242.703 191.392 241.949 192.119L239.943 194.159V194.239H245.011V196H237.034ZM249.409 194.409L249.335 195.034C249.282 195.511 249.188 195.996 249.051 196.489C248.919 196.985 248.778 197.441 248.631 197.858C248.483 198.275 248.364 198.602 248.273 198.841H246.886C246.939 198.61 247.011 198.295 247.102 197.898C247.197 197.5 247.288 197.053 247.375 196.557C247.462 196.061 247.521 195.557 247.551 195.045L247.591 194.409H249.409ZM251.741 196L256.69 186.205V186.125H250.946V184.364H258.872V186.165L253.929 196H251.741ZM264.616 196.159C263.798 196.159 263.071 196.019 262.435 195.739C261.802 195.458 261.302 195.068 260.935 194.568C260.567 194.068 260.372 193.491 260.349 192.835H262.486C262.505 193.15 262.609 193.424 262.798 193.659C262.988 193.89 263.24 194.07 263.554 194.199C263.868 194.328 264.221 194.392 264.611 194.392C265.027 194.392 265.397 194.32 265.719 194.176C266.041 194.028 266.293 193.824 266.474 193.562C266.656 193.301 266.745 193 266.741 192.659C266.745 192.307 266.654 191.996 266.469 191.727C266.283 191.458 266.014 191.248 265.662 191.097C265.313 190.945 264.893 190.869 264.401 190.869H263.372V189.244H264.401C264.806 189.244 265.16 189.174 265.463 189.034C265.77 188.894 266.01 188.697 266.185 188.443C266.359 188.186 266.444 187.888 266.44 187.551C266.444 187.222 266.37 186.936 266.219 186.693C266.071 186.447 265.861 186.256 265.588 186.119C265.319 185.983 265.003 185.915 264.639 185.915C264.283 185.915 263.954 185.979 263.651 186.108C263.348 186.237 263.103 186.42 262.918 186.659C262.732 186.894 262.634 187.174 262.622 187.5H260.594C260.609 186.848 260.796 186.277 261.156 185.784C261.52 185.288 262.005 184.902 262.611 184.625C263.217 184.345 263.897 184.205 264.651 184.205C265.427 184.205 266.101 184.35 266.673 184.642C267.249 184.93 267.694 185.318 268.009 185.807C268.323 186.295 268.48 186.835 268.48 187.426C268.484 188.081 268.291 188.631 267.901 189.074C267.514 189.517 267.007 189.807 266.378 189.943V190.034C267.196 190.148 267.823 190.451 268.259 190.943C268.698 191.432 268.916 192.04 268.912 192.767C268.912 193.419 268.726 194.002 268.355 194.517C267.988 195.028 267.48 195.43 266.832 195.722C266.188 196.013 265.45 196.159 264.616 196.159ZM275.595 184.364V196H273.487V186.415H273.419L270.697 188.153V186.222L273.589 184.364H275.595Z" fill="#474747"/>
<path d="M282.976 190.909C282.976 189.656 283.138 188.504 283.463 187.454C283.791 186.4 284.259 185.43 284.865 184.545H285.899C285.661 184.874 285.437 185.278 285.228 185.759C285.022 186.236 284.842 186.761 284.686 187.335C284.53 187.905 284.408 188.495 284.318 189.104C284.232 189.714 284.189 190.316 284.189 190.909C284.189 191.698 284.265 192.498 284.418 193.31C284.57 194.122 284.776 194.876 285.034 195.572C285.293 196.268 285.581 196.835 285.899 197.273H284.865C284.259 196.388 283.791 195.42 283.463 194.369C283.138 193.315 282.976 192.162 282.976 190.909ZM298.687 189C298.578 188.665 298.434 188.365 298.255 188.1C298.079 187.832 297.869 187.603 297.623 187.414C297.381 187.225 297.106 187.081 296.798 186.982C296.49 186.882 296.152 186.832 295.784 186.832C295.181 186.832 294.632 186.988 294.138 187.3C293.644 187.611 293.252 188.07 292.96 188.677C292.668 189.283 292.523 190.027 292.523 190.909C292.523 191.791 292.67 192.535 292.965 193.141C293.26 193.748 293.659 194.207 294.163 194.518C294.667 194.83 295.234 194.986 295.863 194.986C296.447 194.986 296.961 194.862 297.405 194.613C297.852 194.361 298.2 194.006 298.449 193.549C298.701 193.088 298.827 192.546 298.827 191.923L299.204 192.003H296.142V190.909H300.02V192.003C300.02 192.841 299.841 193.571 299.483 194.19C299.128 194.81 298.638 195.291 298.011 195.632C297.388 195.97 296.672 196.139 295.863 196.139C294.962 196.139 294.17 195.927 293.487 195.503C292.808 195.079 292.277 194.475 291.896 193.693C291.518 192.911 291.329 191.983 291.329 190.909C291.329 190.104 291.437 189.379 291.653 188.737C291.871 188.09 292.18 187.54 292.577 187.086C292.975 186.632 293.446 186.284 293.989 186.042C294.533 185.8 295.131 185.679 295.784 185.679C296.321 185.679 296.821 185.76 297.285 185.923C297.753 186.082 298.169 186.309 298.533 186.604C298.901 186.895 299.208 187.245 299.453 187.653C299.698 188.057 299.867 188.506 299.96 189H298.687ZM302.451 196V188.364H303.624V196H302.451ZM303.047 187.091C302.819 187.091 302.622 187.013 302.456 186.857C302.293 186.701 302.212 186.514 302.212 186.295C302.212 186.077 302.293 185.889 302.456 185.734C302.622 185.578 302.819 185.5 303.047 185.5C303.276 185.5 303.472 185.578 303.634 185.734C303.8 185.889 303.883 186.077 303.883 186.295C303.883 186.514 303.8 186.701 303.634 186.857C303.472 187.013 303.276 187.091 303.047 187.091ZM305.773 196V188.364H306.907V189.517H306.986C307.125 189.139 307.377 188.833 307.742 188.597C308.106 188.362 308.517 188.244 308.975 188.244C309.061 188.244 309.169 188.246 309.298 188.249C309.427 188.253 309.525 188.258 309.591 188.264V189.457C309.551 189.447 309.46 189.433 309.318 189.413C309.179 189.389 309.031 189.378 308.875 189.378C308.504 189.378 308.173 189.456 307.881 189.612C307.593 189.764 307.364 189.976 307.195 190.248C307.029 190.516 306.946 190.823 306.946 191.168V196H305.773ZM312.155 185.818V196H310.982V185.818H312.155ZM319.713 190.074L318.659 190.372C318.593 190.196 318.495 190.026 318.366 189.86C318.24 189.691 318.068 189.552 317.849 189.442C317.63 189.333 317.35 189.278 317.009 189.278C316.542 189.278 316.152 189.386 315.841 189.602C315.532 189.814 315.378 190.084 315.378 190.412C315.378 190.704 315.484 190.934 315.696 191.103C315.908 191.272 316.24 191.413 316.691 191.526L317.824 191.804C318.507 191.97 319.016 192.223 319.35 192.565C319.685 192.903 319.853 193.339 319.853 193.872C319.853 194.31 319.727 194.701 319.475 195.045C319.226 195.39 318.878 195.662 318.431 195.861C317.983 196.06 317.463 196.159 316.87 196.159C316.091 196.159 315.446 195.99 314.936 195.652C314.425 195.314 314.102 194.82 313.966 194.17L315.08 193.892C315.186 194.303 315.386 194.611 315.681 194.817C315.98 195.022 316.369 195.125 316.85 195.125C317.397 195.125 317.831 195.009 318.152 194.777C318.477 194.542 318.64 194.26 318.64 193.932C318.64 193.667 318.547 193.445 318.361 193.266C318.176 193.083 317.891 192.947 317.506 192.858L316.233 192.56C315.534 192.394 315.02 192.137 314.692 191.789C314.367 191.438 314.205 190.999 314.205 190.472C314.205 190.041 314.326 189.66 314.568 189.328C314.813 188.997 315.146 188.737 315.567 188.548C315.991 188.359 316.472 188.264 317.009 188.264C317.765 188.264 318.358 188.43 318.789 188.761C319.223 189.093 319.531 189.53 319.713 190.074ZM328.062 191.705C328.062 192.957 327.898 194.111 327.57 195.165C327.245 196.215 326.779 197.183 326.173 198.068H325.139C325.377 197.74 325.599 197.336 325.805 196.855C326.014 196.378 326.196 195.854 326.352 195.284C326.508 194.711 326.628 194.119 326.715 193.509C326.804 192.896 326.849 192.295 326.849 191.705C326.849 190.916 326.773 190.115 326.62 189.303C326.468 188.491 326.262 187.737 326.004 187.041C325.745 186.345 325.457 185.778 325.139 185.341H326.173C326.779 186.226 327.245 187.195 327.57 188.249C327.898 189.3 328.062 190.452 328.062 191.705Z" fill="#A2A2A2"/>
<circle cx="227.5" cy="189.5" r="4.5" fill="#FFED9F"/>
<defs>
<clipPath id="clip0_1_1041">
<rect width="159" height="159" fill="white"/>
</clipPath>
<clipPath id="clip1_1_1041">
<rect width="159" height="159" fill="white" transform="translate(197)"/>
</clipPath>
</defs>
</svg>
