<svg width="16" height="16" viewBox="0 0 16 16" fill="none" xmlns="http://www.w3.org/2000/svg">
<path d="M5.33325 1.30933V3.27324" stroke="#777777" stroke-width="1.5" stroke-miterlimit="10" stroke-linecap="round" stroke-linejoin="round"/>
<path d="M10.6667 1.30933V3.27324" stroke="#777777" stroke-width="1.5" stroke-miterlimit="10" stroke-linecap="round" stroke-linejoin="round"/>
<path d="M10.6667 2.29126C12.8867 2.40909 14 3.24048 14 6.31728V10.3629C14 13.0601 13.3333 14.4086 10 14.4086H6C2.66667 14.4086 2 13.0601 2 10.3629V6.31728C2 3.24048 3.11333 2.41564 5.33333 2.29126H10.6667Z" stroke="#777777" stroke-width="1.5" stroke-miterlimit="10" stroke-linecap="round" stroke-linejoin="round"/>
<path d="M13.8334 11.5217H2.16675" stroke="#777777" stroke-width="1.5" stroke-miterlimit="10" stroke-linecap="round" stroke-linejoin="round"/>
<mask id="path-5-inside-1_1_2667" fill="white">
<path d="M7.99992 5.40088C7.17992 5.40088 6.48658 5.83949 6.48658 6.69052C6.48658 7.09639 6.67992 7.40407 6.97325 7.60046C6.56659 7.83613 6.33325 8.21582 6.33325 8.66097C6.33325 9.47272 6.96659 9.9768 7.99992 9.9768C9.02659 9.9768 9.66658 9.47272 9.66658 8.66097C9.66658 8.21582 9.43325 7.82958 9.01992 7.60046C9.31992 7.39752 9.50659 7.09639 9.50659 6.69052C9.50659 5.83949 8.81992 5.40088 7.99992 5.40088ZM7.99992 7.26005C7.65325 7.26005 7.39992 7.05711 7.39992 6.73634C7.39992 6.40902 7.65325 6.21918 7.99992 6.21918C8.34659 6.21918 8.59992 6.40902 8.59992 6.73634C8.59992 7.05711 8.34659 7.26005 7.99992 7.26005ZM7.99992 9.16505C7.55992 9.16505 7.23992 8.94902 7.23992 8.55623C7.23992 8.16345 7.55992 7.95397 7.99992 7.95397C8.43992 7.95397 8.75992 8.17 8.75992 8.55623C8.75992 8.94902 8.43992 9.16505 7.99992 9.16505Z"/>
</mask>
<path d="M7.99992 5.40088C7.17992 5.40088 6.48658 5.83949 6.48658 6.69052C6.48658 7.09639 6.67992 7.40407 6.97325 7.60046C6.56659 7.83613 6.33325 8.21582 6.33325 8.66097C6.33325 9.47272 6.96659 9.9768 7.99992 9.9768C9.02659 9.9768 9.66658 9.47272 9.66658 8.66097C9.66658 8.21582 9.43325 7.82958 9.01992 7.60046C9.31992 7.39752 9.50659 7.09639 9.50659 6.69052C9.50659 5.83949 8.81992 5.40088 7.99992 5.40088ZM7.99992 7.26005C7.65325 7.26005 7.39992 7.05711 7.39992 6.73634C7.39992 6.40902 7.65325 6.21918 7.99992 6.21918C8.34659 6.21918 8.59992 6.40902 8.59992 6.73634C8.59992 7.05711 8.34659 7.26005 7.99992 7.26005ZM7.99992 9.16505C7.55992 9.16505 7.23992 8.94902 7.23992 8.55623C7.23992 8.16345 7.55992 7.95397 7.99992 7.95397C8.43992 7.95397 8.75992 8.17 8.75992 8.55623C8.75992 8.94902 8.43992 9.16505 7.99992 9.16505Z" fill="#292D32"/>
<path d="M6.97325 7.60046L7.47466 8.46567L8.86209 7.66164L7.52959 6.76951L6.97325 7.60046ZM9.01992 7.60046L8.45962 6.77217L7.11003 7.68511L8.53509 8.47507L9.01992 7.60046ZM7.99992 4.40088C7.42466 4.40088 6.81192 4.55335 6.31916 4.93928C5.79841 5.34713 5.48658 5.9613 5.48658 6.69052H7.48659C7.48659 6.61641 7.5009 6.57998 7.50787 6.56558C7.51495 6.55096 7.52654 6.53405 7.55234 6.51384C7.61125 6.46771 7.75518 6.40088 7.99992 6.40088V4.40088ZM5.48658 6.69052C5.48658 7.45812 5.87049 8.06558 6.41691 8.43142L7.52959 6.76951C7.4998 6.74956 7.49301 6.7365 7.493 6.73646C7.4926 6.73575 7.49156 6.73387 7.49033 6.72905C7.48907 6.72414 7.48659 6.71205 7.48659 6.69052H5.48658ZM6.47185 6.73525C5.78686 7.13221 5.33325 7.82545 5.33325 8.66097H7.33325C7.33325 8.61811 7.34307 8.59171 7.35582 8.57067C7.36979 8.54764 7.40201 8.50778 7.47466 8.46567L6.47185 6.73525ZM5.33325 8.66097C5.33325 9.35288 5.61639 9.97849 6.15858 10.4075C6.67389 10.8152 7.33335 10.9768 7.99992 10.9768V8.9768C7.63315 8.9768 7.45928 8.88632 7.39959 8.83909C7.37256 8.81771 7.36115 8.80027 7.35412 8.78524C7.34659 8.76916 7.33325 8.73212 7.33325 8.66097H5.33325ZM7.99992 10.9768C8.66447 10.9768 9.32272 10.8146 9.83765 10.4084C10.3791 9.98114 10.6666 9.35631 10.6666 8.66097H8.66658C8.66658 8.73059 8.65343 8.76687 8.64591 8.78284C8.63878 8.79797 8.62691 8.81608 8.59885 8.83822C8.53712 8.88692 8.36203 8.9768 7.99992 8.9768V10.9768ZM10.6666 8.66097C10.6666 7.83068 10.2166 7.12046 9.50474 6.72585L8.53509 8.47507C8.60155 8.51191 8.63086 8.54797 8.64389 8.56938C8.65629 8.58978 8.66658 8.61714 8.66658 8.66097H10.6666ZM9.58022 8.42875C10.1305 8.05652 10.5066 7.4571 10.5066 6.69052H8.50659C8.50659 6.71484 8.50386 6.72779 8.50276 6.73215C8.50173 6.73626 8.5012 6.73666 8.50175 6.73566C8.50401 6.7316 8.49816 6.7461 8.45962 6.77217L9.58022 8.42875ZM10.5066 6.69052C10.5066 5.96484 10.1993 5.35056 9.67966 4.9411C9.18774 4.55349 8.57537 4.40088 7.99992 4.40088V6.40088C8.24446 6.40088 8.38543 6.46758 8.44184 6.51202C8.46653 6.53148 8.47784 6.54788 8.48497 6.56274C8.49208 6.57754 8.50659 6.61494 8.50659 6.69052H10.5066ZM7.99992 6.26005C8.0159 6.26005 8.11037 6.26526 8.21825 6.35712C8.34124 6.46186 8.39992 6.61237 8.39992 6.73634H6.39992C6.39992 7.18108 6.58526 7.59345 6.92159 7.87984C7.2428 8.15337 7.63727 8.26005 7.99992 8.26005V6.26005ZM8.39992 6.73634C8.39992 6.78539 8.3899 6.8555 8.35446 6.93307C8.31876 7.01119 8.26647 7.07654 8.20792 7.12505C8.09412 7.21933 7.99996 7.21918 7.99992 7.21918V5.21918C7.65321 5.21918 7.25905 5.31394 6.93192 5.58497C6.58382 5.87339 6.39992 6.29103 6.39992 6.73634H8.39992ZM7.99992 7.21918C7.99988 7.21918 7.90572 7.21933 7.79192 7.12505C7.73337 7.07654 7.68108 7.01119 7.64538 6.93307C7.60993 6.8555 7.59992 6.78539 7.59992 6.73634H9.59992C9.59992 6.29103 9.41602 5.87339 9.06792 5.58497C8.74079 5.31394 8.34663 5.21918 7.99992 5.21918V7.21918ZM7.59992 6.73634C7.59992 6.61237 7.6586 6.46186 7.78159 6.35712C7.88946 6.26526 7.98393 6.26005 7.99992 6.26005V8.26005C8.36257 8.26005 8.75704 8.15337 9.07825 7.87984C9.41457 7.59345 9.59992 7.18108 9.59992 6.73634H7.59992ZM7.99992 8.16505C7.9295 8.16505 7.97422 8.14625 8.06189 8.21321C8.10972 8.24974 8.1596 8.30502 8.19532 8.37814C8.23096 8.4511 8.23992 8.51596 8.23992 8.55623H6.23992C6.23992 9.05701 6.4595 9.50599 6.84795 9.80266C7.20562 10.0758 7.63034 10.165 7.99992 10.165V8.16505ZM8.23992 8.55623C8.23992 8.59652 8.23093 8.66305 8.1939 8.73824C8.15673 8.81371 8.10489 8.87025 8.05575 8.90718C7.96675 8.97408 7.92315 8.95397 7.99992 8.95397V6.95397C7.63668 6.95397 7.21309 7.0386 6.85409 7.30843C6.46125 7.6037 6.23992 8.0537 6.23992 8.55623H8.23992ZM7.99992 8.95397C8.07021 8.95397 8.02736 8.97274 7.94101 8.90731C7.89381 8.87155 7.84331 8.81658 7.80666 8.74246C7.76995 8.66822 7.75992 8.6007 7.75992 8.55623H9.75992C9.75992 8.05298 9.53564 7.60629 9.14883 7.31321C8.79248 7.04321 8.36962 6.95397 7.99992 6.95397V8.95397ZM7.75992 8.55623C7.75992 8.51596 7.76888 8.4511 7.80452 8.37814C7.84024 8.30502 7.89012 8.24974 7.93795 8.21321C8.02562 8.14625 8.07034 8.16505 7.99992 8.16505V10.165C8.3695 10.165 8.79422 10.0758 9.15189 9.80266C9.54033 9.50599 9.75992 9.05701 9.75992 8.55623H7.75992Z" fill="#777777" mask="url(#path-5-inside-1_1_2667)"/>
</svg>
