<svg width="306" height="346" viewBox="0 0 306 346" fill="none" xmlns="http://www.w3.org/2000/svg">
<rect width="306" height="346" rx="24" fill="white"/>
<g clip-path="url(#clip0_1_959)">
<path d="M34.1831 28.175L30.3581 32L34.1831 35.825L32.9998 37L27.9998 32L32.9998 27L34.1831 28.175Z" fill="#B5BEC6"/>
<path d="M105.347 25.9C104.591 25.186 103.457 24.836 102.463 24.836C100.671 24.836 98.8367 25.732 98.8367 27.748C98.8367 29.596 100.139 30.184 101.343 30.562C102.589 30.954 103.625 31.248 103.625 32.284C103.625 33.348 102.659 33.754 101.833 33.754C101.049 33.754 100.153 33.334 99.6627 32.662L98.4027 33.838C99.1867 34.762 100.517 35.252 101.805 35.252C103.751 35.252 105.417 34.216 105.417 32.088C105.417 30.142 103.793 29.582 102.519 29.19C101.399 28.84 100.629 28.574 100.629 27.664C100.629 26.698 101.567 26.306 102.379 26.306C103.079 26.306 103.821 26.67 104.199 27.16L105.347 25.9ZM108.388 30.968C108.458 30.03 109.256 29.344 110.25 29.344C111.342 29.344 111.832 30.1 111.832 30.968H108.388ZM113.512 31.724C113.512 29.302 112.14 28.084 110.264 28.084C108.234 28.084 106.708 29.512 106.708 31.682C106.708 33.866 108.248 35.196 110.32 35.196C111.594 35.196 112.546 34.748 113.204 33.852L112.084 32.956C111.706 33.488 111.146 33.824 110.306 33.824C109.326 33.824 108.458 33.124 108.388 32.172H113.498C113.512 32.018 113.512 31.878 113.512 31.724ZM115.139 28.28V38.36H116.819V34.104H116.847C117.281 34.776 118.135 35.196 119.073 35.196C121.117 35.196 122.377 33.572 122.377 31.612C122.377 29.624 121.033 28.084 119.115 28.084C117.883 28.084 117.127 28.686 116.791 29.218H116.749V28.28H115.139ZM120.669 31.612C120.669 32.662 120.039 33.796 118.737 33.796C117.505 33.796 116.763 32.69 116.763 31.64C116.763 30.59 117.505 29.456 118.737 29.456C120.039 29.456 120.669 30.562 120.669 31.612ZM124.208 29.624V32.76C124.208 34.048 124.614 35.14 126.392 35.14C126.77 35.14 127.218 35.07 127.512 34.958L127.456 33.642C127.26 33.74 126.966 33.782 126.742 33.782C126 33.782 125.86 33.348 125.86 32.746V29.624H127.54V28.28H125.86V26.334H124.208V28.28H123.032V29.624H124.208ZM130.044 30.968C130.114 30.03 130.912 29.344 131.906 29.344C132.998 29.344 133.488 30.1 133.488 30.968H130.044ZM135.168 31.724C135.168 29.302 133.796 28.084 131.92 28.084C129.89 28.084 128.364 29.512 128.364 31.682C128.364 33.866 129.904 35.196 131.976 35.196C133.25 35.196 134.202 34.748 134.86 33.852L133.74 32.956C133.362 33.488 132.802 33.824 131.962 33.824C130.982 33.824 130.114 33.124 130.044 32.172H135.154C135.168 32.018 135.168 31.878 135.168 31.724ZM144.817 28.084C143.809 28.084 143.053 28.546 142.605 29.358C142.227 28.602 141.541 28.084 140.505 28.084C139.427 28.084 138.713 28.7 138.419 29.358H138.391V28.28H136.795V35H138.475V31.304C138.475 30.408 138.937 29.484 139.945 29.484C140.799 29.484 141.191 30.114 141.191 30.94V35H142.871V31.332C142.871 30.464 143.305 29.484 144.355 29.484C145.433 29.484 145.615 30.478 145.615 31.276V35H147.295V30.8C147.295 29.428 146.567 28.084 144.817 28.084ZM149.278 24.416V35H150.874V33.992H150.902C151.364 34.762 152.274 35.196 153.212 35.196C155.256 35.196 156.516 33.572 156.516 31.612C156.516 29.624 155.172 28.084 153.254 28.084C152.022 28.084 151.35 28.7 151 29.134H150.958V24.416H149.278ZM154.808 31.612C154.808 32.662 154.178 33.796 152.876 33.796C151.644 33.796 150.902 32.69 150.902 31.64C150.902 30.59 151.644 29.456 152.876 29.456C154.178 29.456 154.808 30.562 154.808 31.612ZM159.425 30.968C159.495 30.03 160.293 29.344 161.287 29.344C162.379 29.344 162.869 30.1 162.869 30.968H159.425ZM164.549 31.724C164.549 29.302 163.177 28.084 161.301 28.084C159.271 28.084 157.745 29.512 157.745 31.682C157.745 33.866 159.285 35.196 161.357 35.196C162.631 35.196 163.583 34.748 164.241 33.852L163.121 32.956C162.743 33.488 162.183 33.824 161.343 33.824C160.363 33.824 159.495 33.124 159.425 32.172H164.535C164.549 32.018 164.549 31.878 164.549 31.724ZM166.176 35H167.856V31.402C167.856 30.912 168.15 29.596 169.662 29.596C169.816 29.596 169.956 29.61 170.18 29.666V28.126C170.068 28.098 169.9 28.084 169.774 28.084C168.892 28.084 168.178 28.63 167.814 29.4H167.786V28.28H166.176V35ZM174.734 35H181.328V33.46H176.862L179.718 30.73C180.6 29.89 181.314 29.008 181.314 27.734C181.314 25.83 179.732 24.836 178.01 24.836C176.19 24.836 174.86 26.04 174.664 27.678L176.302 27.93C176.428 26.964 177.03 26.236 177.982 26.236C178.878 26.236 179.564 26.838 179.564 27.762C179.564 28.532 179.172 29.106 178.556 29.708L174.734 33.46V35ZM190.083 30.044C190.083 26.838 188.837 24.836 186.597 24.836C184.343 24.836 183.083 26.838 183.083 30.044C183.083 33.25 184.343 35.252 186.597 35.252C188.837 35.252 190.083 33.25 190.083 30.044ZM188.361 30.044C188.361 31.43 188.095 33.824 186.597 33.824C185.085 33.824 184.805 31.43 184.805 30.044C184.805 28.658 185.085 26.236 186.597 26.236C188.095 26.236 188.361 28.658 188.361 30.044ZM191.823 35H198.417V33.46H193.951L196.807 30.73C197.689 29.89 198.403 29.008 198.403 27.734C198.403 25.83 196.821 24.836 195.099 24.836C193.279 24.836 191.949 26.04 191.753 27.678L193.391 27.93C193.517 26.964 194.119 26.236 195.071 26.236C195.967 26.236 196.653 26.838 196.653 27.762C196.653 28.532 196.261 29.106 195.645 29.708L191.823 33.46V35ZM203.308 35H204.988V25.088H203.462L200.368 27.58L201.348 28.742L203.308 27.132V35Z" fill="#4A5660"/>
<path d="M271 35.825L274.825 32L271 28.175L272.183 27L277.183 32L272.183 37L271 35.825Z" fill="#B5BEC6"/>
</g>
<path d="M32.4073 68.5C31.8673 67.99 31.0573 67.74 30.3473 67.74C29.0673 67.74 27.7573 68.38 27.7573 69.82C27.7573 71.14 28.6873 71.56 29.5473 71.83C30.4373 72.11 31.1773 72.32 31.1773 73.06C31.1773 73.82 30.4873 74.11 29.8973 74.11C29.3373 74.11 28.6973 73.81 28.3473 73.33L27.4473 74.17C28.0073 74.83 28.9573 75.18 29.8773 75.18C31.2673 75.18 32.4573 74.44 32.4573 72.92C32.4573 71.53 31.2973 71.13 30.3873 70.85C29.5873 70.6 29.0373 70.41 29.0373 69.76C29.0373 69.07 29.7073 68.79 30.2873 68.79C30.7873 68.79 31.3173 69.05 31.5873 69.4L32.4073 68.5ZM34.3595 75H35.7695L36.4095 73.38H39.4795L40.1395 75H41.5795L38.5295 67.92H37.4395L34.3595 75ZM36.8395 72.3L37.9495 69.42L39.0395 72.3H36.8395ZM43.78 75H45.04V69.53H45.06L48.42 75H50.02V67.92H48.76V73.22H48.74L45.45 67.92H43.78V75Z" fill="#B5BEC6"/>
<path d="M62.7859 75H63.9859V69.31H64.0059L66.1259 75H67.0059L69.1559 69.31H69.1759V75H70.4259V67.92H68.4459L66.6259 72.95H66.5959L64.7559 67.92H62.7859V75ZM73.1451 71.44C73.1451 73.65 74.7551 75.18 76.9351 75.18C79.1451 75.18 80.7551 73.65 80.7551 71.44C80.7551 69.17 79.1451 67.74 76.9351 67.74C74.7551 67.74 73.1451 69.17 73.1451 71.44ZM74.5151 71.44C74.5151 69.98 75.4851 68.85 76.9451 68.85C78.4151 68.85 79.3851 69.98 79.3851 71.44C79.3851 72.95 78.3951 74.05 76.9451 74.05C75.5051 74.05 74.5151 72.95 74.5151 71.44ZM83.4714 75H84.7314V69.53H84.7514L88.1114 75H89.7114V67.92H88.4514V73.22H88.4314L85.1414 67.92H83.4714V75Z" fill="#B5BEC6"/>
<path d="M106.247 75H107.507V69.02H109.677V67.92H104.077V69.02H106.247V75ZM117.641 67.92H116.381V72.35C116.381 73.17 116.001 74.05 114.791 74.05C113.581 74.05 113.201 73.17 113.201 72.35V67.92H111.941V72.4C111.941 74.11 113.171 75.18 114.791 75.18C116.411 75.18 117.641 74.11 117.641 72.4V67.92ZM120.639 75H125.509V73.88H121.899V71.88H125.149V70.82H121.899V69.02H125.329V67.92H120.639V75Z" fill="#B5BEC6"/>
<path d="M141.74 75H142.96L144.62 69.69H144.64L146.3 75H147.52L149.59 67.92H148.25L146.85 73.12H146.83L145.3 67.92H144L142.44 73.12H142.42L141.05 67.92H139.67L141.74 75ZM151.929 75H156.799V73.88H153.189V71.88H156.439V70.82H153.189V69.02H156.619V67.92H151.929V75ZM159.533 75H162.043C163.893 75 165.953 73.94 165.953 71.46C165.953 68.8 163.893 67.92 162.043 67.92H159.533V75ZM160.793 73.9V69H161.843C163.143 69 164.603 69.43 164.603 71.46C164.603 73.37 163.143 73.9 161.843 73.9H160.793Z" fill="#B5BEC6"/>
<path d="M181.603 75H182.863V69.02H185.033V67.92H179.433V69.02H181.603V75ZM187.356 75H188.616V71.86H191.926V75H193.186V67.92H191.926V70.78H188.616V67.92H187.356V75ZM201.889 67.92H200.629V72.35C200.629 73.17 200.249 74.05 199.039 74.05C197.829 74.05 197.449 73.17 197.449 72.35V67.92H196.189V72.4C196.189 74.11 197.419 75.18 199.039 75.18C200.659 75.18 201.889 74.11 201.889 72.4V67.92Z" fill="#B5BEC6"/>
<path d="M220.858 75H222.118V72.02H225.238V70.96H222.118V69.02H225.428V67.92H220.858V75ZM228.091 75H229.351V72H230.271L231.911 75H233.431L231.541 71.86C232.531 71.64 233.161 70.97 233.161 69.95C233.161 68.45 231.881 67.92 230.551 67.92H228.091V75ZM229.351 70.97V68.98H230.491C231.141 68.98 231.901 69.17 231.901 69.94C231.901 70.8 231.091 70.97 230.381 70.97H229.351ZM235.88 75H237.14V67.92H235.88V75Z" fill="#B5BEC6"/>
<path d="M261.765 68.5C261.225 67.99 260.415 67.74 259.705 67.74C258.425 67.74 257.115 68.38 257.115 69.82C257.115 71.14 258.045 71.56 258.905 71.83C259.795 72.11 260.535 72.32 260.535 73.06C260.535 73.82 259.845 74.11 259.255 74.11C258.695 74.11 258.055 73.81 257.705 73.33L256.805 74.17C257.365 74.83 258.315 75.18 259.235 75.18C260.625 75.18 261.815 74.44 261.815 72.92C261.815 71.53 260.655 71.13 259.745 70.85C258.945 70.6 258.395 70.41 258.395 69.76C258.395 69.07 259.065 68.79 259.645 68.79C260.145 68.79 260.675 69.05 260.945 69.4L261.765 68.5ZM263.717 75H265.127L265.767 73.38H268.837L269.497 75H270.937L267.887 67.92H266.797L263.717 75ZM266.197 72.3L267.307 69.42L268.397 72.3H266.197ZM273.972 75H275.232V69.02H277.402V67.92H271.802V69.02H273.972V75Z" fill="#B5BEC6"/>
<path d="M38.5812 124.5H40.5012V113.172H38.7572L35.2212 116.02L36.3412 117.348L38.5812 115.508V124.5Z" fill="#4A5660"/>
<path d="M73.2212 124.5H80.7572V122.74H75.6532L78.9172 119.62C79.9252 118.66 80.7412 117.652 80.7412 116.196C80.7412 114.02 78.9332 112.884 76.9652 112.884C74.8852 112.884 73.3652 114.26 73.1412 116.132L75.0132 116.42C75.1572 115.316 75.8452 114.484 76.9332 114.484C77.9572 114.484 78.7412 115.172 78.7412 116.228C78.7412 117.108 78.2932 117.764 77.5892 118.452L73.2212 122.74V124.5Z" fill="#4A5660"/>
<path d="M113.509 119.364H113.989C115.189 119.364 116.741 119.812 116.741 121.284C116.741 122.644 115.653 123.156 114.661 123.156C113.461 123.156 112.677 122.452 112.405 121.556L110.613 122.116C111.221 124.004 112.821 124.788 114.725 124.788C116.645 124.788 118.677 123.652 118.677 121.3C118.677 119.908 117.717 118.852 116.341 118.58V118.548C117.573 118.244 118.373 117.204 118.373 115.988C118.373 113.956 116.709 112.884 114.725 112.884C112.917 112.884 111.429 113.956 111.029 115.476L112.837 115.94C113.061 115.076 113.717 114.484 114.645 114.484C115.605 114.484 116.437 115.092 116.437 116.116C116.437 117.508 115.157 117.828 114.021 117.828H113.509V119.364Z" fill="#4A5660"/>
<path d="M153.685 124.5H155.573V122.148H157.157V120.5H155.573V113.172H153.269L148.453 120.452V122.148H153.685V124.5ZM153.685 120.5H150.437L153.653 115.428H153.685V120.5Z" fill="#4A5660"/>
<path d="M194.197 113.172H187.749L187.557 119.364C188.245 119.012 189.333 118.74 190.197 118.74C191.429 118.74 192.725 119.252 192.725 120.996C192.725 122.372 191.749 123.156 190.613 123.156C189.605 123.156 188.805 122.564 188.485 121.668L186.741 122.308C187.333 123.828 188.677 124.788 190.565 124.788C192.821 124.788 194.693 123.3 194.693 120.788C194.693 118.5 193.013 117.204 190.789 117.204C190.389 117.204 189.813 117.252 189.461 117.348L189.573 114.9H194.197V113.172Z" fill="#4A5660"/>
<path d="M228.837 113.172L226.005 117.556C225.269 118.724 224.837 119.604 224.837 120.9C224.837 123.092 226.613 124.788 228.981 124.788C231.301 124.788 233.109 123.22 233.109 120.82C233.109 118.756 231.493 117.188 229.493 117.188C229.109 117.188 228.597 117.252 228.293 117.38L228.277 117.364L231.173 113.172H228.837ZM226.789 120.948C226.789 119.62 227.701 118.708 228.997 118.708C230.277 118.708 231.141 119.636 231.141 120.916C231.141 122.26 230.261 123.156 228.965 123.156C227.637 123.156 226.789 122.132 226.789 120.948Z" fill="#4A5660"/>
<path d="M262.933 114.9H268.613L263.845 124.5H266.101L270.629 114.932V113.172H262.933V114.9Z" fill="#4A5660"/>
<path d="M38.9972 150.884C37.0132 150.884 35.4132 152.116 35.4132 154.036C35.4132 155.348 36.1652 156.148 37.1732 156.516V156.548C36.0692 156.836 35.0452 157.828 35.0452 159.3C35.0452 161.556 36.8212 162.788 38.9972 162.788C41.1732 162.788 42.9492 161.556 42.9492 159.3C42.9492 157.908 42.0052 156.836 40.8212 156.548V156.516C41.8452 156.18 42.5812 155.268 42.5812 153.956C42.5812 152.036 40.9812 150.884 38.9972 150.884ZM38.9972 152.468C39.8612 152.468 40.6452 153.092 40.6452 154.068C40.6452 154.98 39.9092 155.716 38.9972 155.716C38.0052 155.716 37.3652 154.98 37.3652 154.068C37.3652 153.092 38.0532 152.468 38.9972 152.468ZM38.9972 157.348C40.0852 157.348 40.9492 158.164 40.9492 159.284C40.9492 160.468 40.1012 161.172 38.9972 161.172C37.8772 161.172 37.0292 160.468 37.0292 159.284C37.0292 158.132 37.8932 157.348 38.9972 157.348Z" fill="#4A5660"/>
<path d="M77.1412 162.5L79.9732 158.116C80.7092 156.948 81.1412 156.068 81.1412 154.772C81.1412 152.58 79.3652 150.884 76.9972 150.884C74.6772 150.884 72.8692 152.452 72.8692 154.852C72.8692 156.916 74.4852 158.484 76.4852 158.484C76.8692 158.484 77.3812 158.42 77.7012 158.276L77.7172 158.292L74.8052 162.5H77.1412ZM79.1892 154.724C79.1892 156.052 78.2772 156.964 76.9812 156.964C75.7012 156.964 74.8372 156.036 74.8372 154.756C74.8372 153.412 75.7172 152.484 77.0132 152.484C78.3412 152.484 79.1892 153.54 79.1892 154.724Z" fill="#4A5660"/>
<path d="M109.698 162.5H111.618V151.172H109.874L106.338 154.02L107.458 155.348L109.698 153.508V162.5ZM123.88 156.836C123.88 153.172 122.456 150.884 119.896 150.884C117.32 150.884 115.88 153.172 115.88 156.836C115.88 160.5 117.32 162.788 119.896 162.788C122.456 162.788 123.88 160.5 123.88 156.836ZM121.912 156.836C121.912 158.42 121.608 161.156 119.896 161.156C118.168 161.156 117.848 158.42 117.848 156.836C117.848 155.252 118.168 152.484 119.896 152.484C121.608 152.484 121.912 155.252 121.912 156.836Z" fill="#4A5660"/>
<path d="M147.698 162.5H149.618V151.172H147.874L144.338 154.02L145.458 155.348L147.698 153.508V162.5ZM157.464 162.5H159.384V151.172H157.64L154.104 154.02L155.224 155.348L157.464 153.508V162.5Z" fill="#4A5660"/>
<path d="M185.698 162.5H187.618V151.172H185.874L182.338 154.02L183.458 155.348L185.698 153.508V162.5ZM192.104 162.5H199.64V160.74H194.536L197.8 157.62C198.808 156.66 199.624 155.652 199.624 154.196C199.624 152.02 197.816 150.884 195.848 150.884C193.768 150.884 192.248 152.26 192.024 154.132L193.896 154.42C194.04 153.316 194.728 152.484 195.816 152.484C196.84 152.484 197.624 153.172 197.624 154.228C197.624 155.108 197.176 155.764 196.472 156.452L192.104 160.74V162.5Z" fill="#4A5660"/>
<path d="M223.698 162.5H225.618V151.172H223.874L220.338 154.02L221.458 155.348L223.698 153.508V162.5ZM232.392 157.364H232.872C234.072 157.364 235.624 157.812 235.624 159.284C235.624 160.644 234.536 161.156 233.544 161.156C232.344 161.156 231.56 160.452 231.288 159.556L229.496 160.116C230.104 162.004 231.704 162.788 233.608 162.788C235.528 162.788 237.56 161.652 237.56 159.3C237.56 157.908 236.6 156.852 235.224 156.58V156.548C236.456 156.244 237.256 155.204 237.256 153.988C237.256 151.956 235.592 150.884 233.608 150.884C231.8 150.884 230.312 151.956 229.912 153.476L231.72 153.94C231.944 153.076 232.6 152.484 233.528 152.484C234.488 152.484 235.32 153.092 235.32 154.116C235.32 155.508 234.04 155.828 232.904 155.828H232.392V157.364Z" fill="#4A5660"/>
<path d="M261.698 162.5H263.618V151.172H261.874L258.338 154.02L259.458 155.348L261.698 153.508V162.5ZM272.568 162.5H274.456V160.148H276.04V158.5H274.456V151.172H272.152L267.336 158.452V160.148H272.568V162.5ZM272.568 158.5H269.32L272.536 153.428H272.568V158.5Z" fill="#4A5660"/>
<path d="M33.6984 200.5H35.6184V189.172H33.8744L30.3384 192.02L31.4584 193.348L33.6984 191.508V200.5ZM47.08 189.172H40.632L40.44 195.364C41.128 195.012 42.216 194.74 43.08 194.74C44.312 194.74 45.608 195.252 45.608 196.996C45.608 198.372 44.632 199.156 43.496 199.156C42.488 199.156 41.688 198.564 41.368 197.668L39.624 198.308C40.216 199.828 41.56 200.788 43.448 200.788C45.704 200.788 47.576 199.3 47.576 196.788C47.576 194.5 45.896 193.204 43.672 193.204C43.272 193.204 42.696 193.252 42.344 193.348L42.456 190.9H47.08V189.172Z" fill="#4A5660"/>
<path d="M71.6984 200.5H73.6184V189.172H71.8744L68.3384 192.02L69.4584 193.348L71.6984 191.508V200.5ZM81.72 189.172L78.888 193.556C78.152 194.724 77.72 195.604 77.72 196.9C77.72 199.092 79.496 200.788 81.864 200.788C84.184 200.788 85.992 199.22 85.992 196.82C85.992 194.756 84.376 193.188 82.376 193.188C81.992 193.188 81.48 193.252 81.176 193.38L81.16 193.364L84.056 189.172H81.72ZM79.672 196.948C79.672 195.62 80.584 194.708 81.88 194.708C83.16 194.708 84.024 195.636 84.024 196.916C84.024 198.26 83.144 199.156 81.848 199.156C80.52 199.156 79.672 198.132 79.672 196.948Z" fill="#4A5660"/>
<path d="M109.698 200.5H111.618V189.172H109.874L106.338 192.02L107.458 193.348L109.698 191.508V200.5ZM115.816 190.9H121.496L116.728 200.5H118.984L123.512 190.932V189.172H115.816V190.9Z" fill="#4A5660"/>
<path d="M147.698 200.5H149.618V189.172H147.874L144.338 192.02L145.458 193.348L147.698 191.508V200.5ZM157.88 188.884C155.896 188.884 154.296 190.116 154.296 192.036C154.296 193.348 155.048 194.148 156.056 194.516V194.548C154.952 194.836 153.928 195.828 153.928 197.3C153.928 199.556 155.704 200.788 157.88 200.788C160.056 200.788 161.832 199.556 161.832 197.3C161.832 195.908 160.888 194.836 159.704 194.548V194.516C160.728 194.18 161.464 193.268 161.464 191.956C161.464 190.036 159.864 188.884 157.88 188.884ZM157.88 190.468C158.744 190.468 159.528 191.092 159.528 192.068C159.528 192.98 158.792 193.716 157.88 193.716C156.888 193.716 156.248 192.98 156.248 192.068C156.248 191.092 156.936 190.468 157.88 190.468ZM157.88 195.348C158.968 195.348 159.832 196.164 159.832 197.284C159.832 198.468 158.984 199.172 157.88 199.172C156.76 199.172 155.912 198.468 155.912 197.284C155.912 196.132 156.776 195.348 157.88 195.348Z" fill="#4A5660"/>
<rect x="176" y="180" width="30" height="30" rx="15" fill="#F04D23"/>
<path d="M185.698 200.5H187.618V189.172H185.874L182.338 192.02L183.458 193.348L185.698 191.508V200.5ZM196.024 200.5L198.856 196.116C199.592 194.948 200.024 194.068 200.024 192.772C200.024 190.58 198.248 188.884 195.88 188.884C193.56 188.884 191.752 190.452 191.752 192.852C191.752 194.916 193.368 196.484 195.368 196.484C195.752 196.484 196.264 196.42 196.584 196.276L196.6 196.292L193.688 200.5H196.024ZM198.072 192.724C198.072 194.052 197.16 194.964 195.864 194.964C194.584 194.964 193.72 194.036 193.72 192.756C193.72 191.412 194.6 190.484 195.896 190.484C197.224 190.484 198.072 191.54 198.072 192.724Z" fill="white"/>
<path d="M220.338 200.5H227.874V198.74H222.77L226.034 195.62C227.042 194.66 227.858 193.652 227.858 192.196C227.858 190.02 226.05 188.884 224.082 188.884C222.002 188.884 220.482 190.26 220.258 192.132L222.13 192.42C222.274 191.316 222.962 190.484 224.05 190.484C225.074 190.484 225.858 191.172 225.858 192.228C225.858 193.108 225.41 193.764 224.706 194.452L220.338 198.74V200.5ZM237.88 194.836C237.88 191.172 236.456 188.884 233.896 188.884C231.32 188.884 229.88 191.172 229.88 194.836C229.88 198.5 231.32 200.788 233.896 200.788C236.456 200.788 237.88 198.5 237.88 194.836ZM235.912 194.836C235.912 196.42 235.608 199.156 233.896 199.156C232.168 199.156 231.848 196.42 231.848 194.836C231.848 193.252 232.168 190.484 233.896 190.484C235.608 190.484 235.912 193.252 235.912 194.836Z" fill="#4A5660"/>
<path d="M258.338 200.5H265.874V198.74H260.77L264.034 195.62C265.042 194.66 265.858 193.652 265.858 192.196C265.858 190.02 264.05 188.884 262.082 188.884C260.002 188.884 258.482 190.26 258.258 192.132L260.13 192.42C260.274 191.316 260.962 190.484 262.05 190.484C263.074 190.484 263.858 191.172 263.858 192.228C263.858 193.108 263.41 193.764 262.706 194.452L258.338 198.74V200.5ZM271.464 200.5H273.384V189.172H271.64L268.104 192.02L269.224 193.348L271.464 191.508V200.5Z" fill="#4A5660"/>
<path d="M30.3384 238.5H37.8744V236.74H32.7704L36.0344 233.62C37.0424 232.66 37.8584 231.652 37.8584 230.196C37.8584 228.02 36.0504 226.884 34.0824 226.884C32.0024 226.884 30.4824 228.26 30.2584 230.132L32.1304 230.42C32.2744 229.316 32.9624 228.484 34.0504 228.484C35.0744 228.484 35.8584 229.172 35.8584 230.228C35.8584 231.108 35.4104 231.764 34.7064 232.452L30.3384 236.74V238.5ZM40.104 238.5H47.64V236.74H42.536L45.8 233.62C46.808 232.66 47.624 231.652 47.624 230.196C47.624 228.02 45.816 226.884 43.848 226.884C41.768 226.884 40.248 228.26 40.024 230.132L41.896 230.42C42.04 229.316 42.728 228.484 43.816 228.484C44.84 228.484 45.624 229.172 45.624 230.228C45.624 231.108 45.176 231.764 44.472 232.452L40.104 236.74V238.5Z" fill="#4A5660"/>
<path d="M68.3384 238.5H75.8744V236.74H70.7704L74.0344 233.62C75.0424 232.66 75.8584 231.652 75.8584 230.196C75.8584 228.02 74.0504 226.884 72.0824 226.884C70.0024 226.884 68.4824 228.26 68.2584 230.132L70.1304 230.42C70.2744 229.316 70.9624 228.484 72.0504 228.484C73.0744 228.484 73.8584 229.172 73.8584 230.228C73.8584 231.108 73.4104 231.764 72.7064 232.452L68.3384 236.74V238.5ZM80.392 233.364H80.872C82.072 233.364 83.624 233.812 83.624 235.284C83.624 236.644 82.536 237.156 81.544 237.156C80.344 237.156 79.56 236.452 79.288 235.556L77.496 236.116C78.104 238.004 79.704 238.788 81.608 238.788C83.528 238.788 85.56 237.652 85.56 235.3C85.56 233.908 84.6 232.852 83.224 232.58V232.548C84.456 232.244 85.256 231.204 85.256 229.988C85.256 227.956 83.592 226.884 81.608 226.884C79.8 226.884 78.312 227.956 77.912 229.476L79.72 229.94C79.944 229.076 80.6 228.484 81.528 228.484C82.488 228.484 83.32 229.092 83.32 230.116C83.32 231.508 82.04 231.828 80.904 231.828H80.392V233.364Z" fill="#4A5660"/>
<path d="M106.338 238.5H113.874V236.74H108.77L112.034 233.62C113.042 232.66 113.858 231.652 113.858 230.196C113.858 228.02 112.05 226.884 110.082 226.884C108.002 226.884 106.482 228.26 106.258 230.132L108.13 230.42C108.274 229.316 108.962 228.484 110.05 228.484C111.074 228.484 111.858 229.172 111.858 230.228C111.858 231.108 111.41 231.764 110.706 232.452L106.338 236.74V238.5ZM120.568 238.5H122.456V236.148H124.04V234.5H122.456V227.172H120.152L115.336 234.452V236.148H120.568V238.5ZM120.568 234.5H117.32L120.536 229.428H120.568V234.5Z" fill="#4A5660"/>
<path d="M144.338 238.5H151.874V236.74H146.77L150.034 233.62C151.042 232.66 151.858 231.652 151.858 230.196C151.858 228.02 150.05 226.884 148.082 226.884C146.002 226.884 144.482 228.26 144.258 230.132L146.13 230.42C146.274 229.316 146.962 228.484 148.05 228.484C149.074 228.484 149.858 229.172 149.858 230.228C149.858 231.108 149.41 231.764 148.706 232.452L144.338 236.74V238.5ZM161.08 227.172H154.632L154.44 233.364C155.128 233.012 156.216 232.74 157.08 232.74C158.312 232.74 159.608 233.252 159.608 234.996C159.608 236.372 158.632 237.156 157.496 237.156C156.488 237.156 155.688 236.564 155.368 235.668L153.624 236.308C154.216 237.828 155.56 238.788 157.448 238.788C159.704 238.788 161.576 237.3 161.576 234.788C161.576 232.5 159.896 231.204 157.672 231.204C157.272 231.204 156.696 231.252 156.344 231.348L156.456 228.9H161.08V227.172Z" fill="#4A5660"/>
<path d="M182.338 238.5H189.874V236.74H184.77L188.034 233.62C189.042 232.66 189.858 231.652 189.858 230.196C189.858 228.02 188.05 226.884 186.082 226.884C184.002 226.884 182.482 228.26 182.258 230.132L184.13 230.42C184.274 229.316 184.962 228.484 186.05 228.484C187.074 228.484 187.858 229.172 187.858 230.228C187.858 231.108 187.41 231.764 186.706 232.452L182.338 236.74V238.5ZM195.72 227.172L192.888 231.556C192.152 232.724 191.72 233.604 191.72 234.9C191.72 237.092 193.496 238.788 195.864 238.788C198.184 238.788 199.992 237.22 199.992 234.82C199.992 232.756 198.376 231.188 196.376 231.188C195.992 231.188 195.48 231.252 195.176 231.38L195.16 231.364L198.056 227.172H195.72ZM193.672 234.948C193.672 233.62 194.584 232.708 195.88 232.708C197.16 232.708 198.024 233.636 198.024 234.916C198.024 236.26 197.144 237.156 195.848 237.156C194.52 237.156 193.672 236.132 193.672 234.948Z" fill="#4A5660"/>
<path d="M220.338 238.5H227.874V236.74H222.77L226.034 233.62C227.042 232.66 227.858 231.652 227.858 230.196C227.858 228.02 226.05 226.884 224.082 226.884C222.002 226.884 220.482 228.26 220.258 230.132L222.13 230.42C222.274 229.316 222.962 228.484 224.05 228.484C225.074 228.484 225.858 229.172 225.858 230.228C225.858 231.108 225.41 231.764 224.706 232.452L220.338 236.74V238.5ZM229.816 228.9H235.496L230.728 238.5H232.984L237.512 228.932V227.172H229.816V228.9Z" fill="#4A5660"/>
<path d="M258.338 238.5H265.874V236.74H260.77L264.034 233.62C265.042 232.66 265.858 231.652 265.858 230.196C265.858 228.02 264.05 226.884 262.082 226.884C260.002 226.884 258.482 228.26 258.258 230.132L260.13 230.42C260.274 229.316 260.962 228.484 262.05 228.484C263.074 228.484 263.858 229.172 263.858 230.228C263.858 231.108 263.41 231.764 262.706 232.452L258.338 236.74V238.5ZM271.88 226.884C269.896 226.884 268.296 228.116 268.296 230.036C268.296 231.348 269.048 232.148 270.056 232.516V232.548C268.952 232.836 267.928 233.828 267.928 235.3C267.928 237.556 269.704 238.788 271.88 238.788C274.056 238.788 275.832 237.556 275.832 235.3C275.832 233.908 274.888 232.836 273.704 232.548V232.516C274.728 232.18 275.464 231.268 275.464 229.956C275.464 228.036 273.864 226.884 271.88 226.884ZM271.88 228.468C272.744 228.468 273.528 229.092 273.528 230.068C273.528 230.98 272.792 231.716 271.88 231.716C270.888 231.716 270.248 230.98 270.248 230.068C270.248 229.092 270.936 228.468 271.88 228.468ZM271.88 233.348C272.968 233.348 273.832 234.164 273.832 235.284C273.832 236.468 272.984 237.172 271.88 237.172C270.76 237.172 269.912 236.468 269.912 235.284C269.912 234.132 270.776 233.348 271.88 233.348Z" fill="#4A5660"/>
<path d="M30.3384 276.5H37.8744V274.74H32.7704L36.0344 271.62C37.0424 270.66 37.8584 269.652 37.8584 268.196C37.8584 266.02 36.0504 264.884 34.0824 264.884C32.0024 264.884 30.4824 266.26 30.2584 268.132L32.1304 268.42C32.2744 267.316 32.9624 266.484 34.0504 266.484C35.0744 266.484 35.8584 267.172 35.8584 268.228C35.8584 269.108 35.4104 269.764 34.7064 270.452L30.3384 274.74V276.5ZM44.024 276.5L46.856 272.116C47.592 270.948 48.024 270.068 48.024 268.772C48.024 266.58 46.248 264.884 43.88 264.884C41.56 264.884 39.752 266.452 39.752 268.852C39.752 270.916 41.368 272.484 43.368 272.484C43.752 272.484 44.264 272.42 44.584 272.276L44.6 272.292L41.688 276.5H44.024ZM46.072 268.724C46.072 270.052 45.16 270.964 43.864 270.964C42.584 270.964 41.72 270.036 41.72 268.756C41.72 267.412 42.6 266.484 43.896 266.484C45.224 266.484 46.072 267.54 46.072 268.724Z" fill="#4A5660"/>
<path d="M70.6264 271.364H71.1064C72.3064 271.364 73.8584 271.812 73.8584 273.284C73.8584 274.644 72.7704 275.156 71.7784 275.156C70.5784 275.156 69.7944 274.452 69.5224 273.556L67.7304 274.116C68.3384 276.004 69.9384 276.788 71.8424 276.788C73.7624 276.788 75.7944 275.652 75.7944 273.3C75.7944 271.908 74.8344 270.852 73.4584 270.58V270.548C74.6904 270.244 75.4904 269.204 75.4904 267.988C75.4904 265.956 73.8264 264.884 71.8424 264.884C70.0344 264.884 68.5464 265.956 68.1464 267.476L69.9544 267.94C70.1784 267.076 70.8344 266.484 71.7624 266.484C72.7224 266.484 73.5544 267.092 73.5544 268.116C73.5544 269.508 72.2744 269.828 71.1384 269.828H70.6264V271.364ZM85.88 270.836C85.88 267.172 84.456 264.884 81.896 264.884C79.32 264.884 77.88 267.172 77.88 270.836C77.88 274.5 79.32 276.788 81.896 276.788C84.456 276.788 85.88 274.5 85.88 270.836ZM83.912 270.836C83.912 272.42 83.608 275.156 81.896 275.156C80.168 275.156 79.848 272.42 79.848 270.836C79.848 269.252 80.168 266.484 81.896 266.484C83.608 266.484 83.912 269.252 83.912 270.836Z" fill="#4A5660"/>
<path d="M108.626 271.364H109.106C110.306 271.364 111.858 271.812 111.858 273.284C111.858 274.644 110.77 275.156 109.778 275.156C108.578 275.156 107.794 274.452 107.522 273.556L105.73 274.116C106.338 276.004 107.938 276.788 109.842 276.788C111.762 276.788 113.794 275.652 113.794 273.3C113.794 271.908 112.834 270.852 111.458 270.58V270.548C112.69 270.244 113.49 269.204 113.49 267.988C113.49 265.956 111.826 264.884 109.842 264.884C108.034 264.884 106.546 265.956 106.146 267.476L107.954 267.94C108.178 267.076 108.834 266.484 109.762 266.484C110.722 266.484 111.554 267.092 111.554 268.116C111.554 269.508 110.274 269.828 109.138 269.828H108.626V271.364ZM119.464 276.5H121.384V265.172H119.64L116.104 268.02L117.224 269.348L119.464 267.508V276.5Z" fill="#4A5660"/>
<defs>
<clipPath id="clip0_1_959">
<rect width="258" height="16" fill="white" transform="translate(24 24)"/>
</clipPath>
</defs>
</svg>
