<svg width="29" height="29" viewBox="0 0 29 29" fill="none" xmlns="http://www.w3.org/2000/svg">
<path d="M12 25H18C23 25 25 23 25 18V12C25 7 23 5 18 5H12C7 5 5 7 5 12V18C5 23 7 25 12 25Z" stroke="#525252" stroke-linecap="round" stroke-linejoin="round"/>
<path d="M18.5699 21.5001V17.6001" stroke="#525252" stroke-miterlimit="10" stroke-linecap="round" stroke-linejoin="round"/>
<path d="M18.5699 10.45V8.5" stroke="#525252" stroke-miterlimit="10" stroke-linecap="round" stroke-linejoin="round"/>
<path d="M18.57 15.65C20.0059 15.65 21.17 14.4859 21.17 13.05C21.17 11.614 20.0059 10.45 18.57 10.45C17.134 10.45 15.97 11.614 15.97 13.05C15.97 14.4859 17.134 15.65 18.57 15.65Z" stroke="#525252" stroke-miterlimit="10" stroke-linecap="round" stroke-linejoin="round"/>
<path d="M11.4301 21.5V19.55" stroke="#525252" stroke-miterlimit="10" stroke-linecap="round" stroke-linejoin="round"/>
<path d="M11.4301 12.4V8.5" stroke="#525252" stroke-miterlimit="10" stroke-linecap="round" stroke-linejoin="round"/>
<path d="M11.43 19.5501C12.8659 19.5501 14.03 18.386 14.03 16.9501C14.03 15.5142 12.8659 14.3501 11.43 14.3501C9.99402 14.3501 8.82996 15.5142 8.82996 16.9501C8.82996 18.386 9.99402 19.5501 11.43 19.5501Z" stroke="#525252" stroke-miterlimit="10" stroke-linecap="round" stroke-linejoin="round"/>
</svg>
