<svg width="40" height="41" viewBox="0 0 40 41" fill="none" xmlns="http://www.w3.org/2000/svg">
<rect y="0.5" width="40" height="40" rx="10" fill="#FFF4FD"/>
<path d="M12.1644 30.2847L15.2051 28.9592L16.5305 31.9999L19.6492 23.8135C18.0119 23.7356 16.4525 23.1898 15.2831 22.2542L12.1644 30.2847Z" fill="#FF8CE6"/>
<path d="M24.7169 22.2542C23.4695 23.1898 21.9881 23.7356 20.3508 23.8135L23.4695 31.9999L24.7949 28.9592L27.8356 30.2847L24.7169 22.2542Z" fill="#FF8CE6"/>
<path d="M26.978 16.0169C26.978 12.1186 23.8593 9 19.961 9C16.0627 9 12.9441 12.1186 12.9441 16.0169C12.9441 19.9152 16.0627 23.0339 19.961 23.0339C23.8593 23.0339 26.978 19.9152 26.978 16.0169ZM22.6898 19.9152L19.961 18.122L17.2322 19.9152L18.4017 16.7966L16.0627 15.2373H18.7916L19.9611 12.1186L21.1306 15.2373H23.8594L21.5204 16.7966L22.6898 19.9152Z" fill="#FF8CE6"/>
</svg>
