<svg width="40" height="41" viewBox="0 0 40 41" fill="none" xmlns="http://www.w3.org/2000/svg">
<rect y="0.5" width="40" height="40" rx="10" fill="#F1F0FF"/>
<path d="M24.19 10.5H15.81C12.17 10.5 10 12.67 10 16.31V24.69C10 28.33 12.17 30.5 15.81 30.5H24.19C27.83 30.5 30 28.33 30 24.69V16.31C30 12.67 27.83 10.5 24.19 10.5ZM17.97 23.4L15.72 25.65C15.57 25.8 15.38 25.87 15.19 25.87C15 25.87 14.8 25.8 14.66 25.65L13.91 24.9C13.61 24.61 13.61 24.13 13.91 23.84C14.2 23.55 14.67 23.55 14.97 23.84L15.19 24.06L16.91 22.34C17.2 22.05 17.67 22.05 17.97 22.34C18.26 22.63 18.26 23.11 17.97 23.4ZM17.97 16.4L15.72 18.65C15.57 18.8 15.38 18.87 15.19 18.87C15 18.87 14.8 18.8 14.66 18.65L13.91 17.9C13.61 17.61 13.61 17.13 13.91 16.84C14.2 16.55 14.67 16.55 14.97 16.84L15.19 17.06L16.91 15.34C17.2 15.05 17.67 15.05 17.97 15.34C18.26 15.63 18.26 16.11 17.97 16.4ZM25.56 25.12H20.31C19.9 25.12 19.56 24.78 19.56 24.37C19.56 23.96 19.9 23.62 20.31 23.62H25.56C25.98 23.62 26.31 23.96 26.31 24.37C26.31 24.78 25.98 25.12 25.56 25.12ZM25.56 18.12H20.31C19.9 18.12 19.56 17.78 19.56 17.37C19.56 16.96 19.9 16.62 20.31 16.62H25.56C25.98 16.62 26.31 16.96 26.31 17.37C26.31 17.78 25.98 18.12 25.56 18.12Z" fill="#8785FF"/>
</svg>
