<svg width="40" height="41" viewBox="0 0 40 41" fill="none" xmlns="http://www.w3.org/2000/svg">
<rect y="0.5" width="40" height="40" rx="10" fill="#FDF6D8"/>
<path d="M21 10.53V10.55V12.55C25.39 13.09 28.5 17.08 27.96 21.47C27.5 25.11 24.64 28 21 28.43V30.43C26.5 29.88 30.5 25 29.95 19.5C29.5 14.75 25.73 11 21 10.53ZM19 10.56C17.05 10.75 15.19 11.5 13.67 12.76L15.1 14.24C16.22 13.34 17.57 12.76 19 12.56V10.56ZM12.26 14.17C11 15.69 10.25 17.54 10.05 19.5H12.05C12.24 18.08 12.8 16.73 13.69 15.6L12.26 14.17ZM23.5 17L18.62 21.88L16.5 19.76L15.44 20.82L18.62 24L24.56 18.06L23.5 17ZM10.06 21.5C10.26 23.46 11.03 25.31 12.27 26.83L13.69 25.4C12.81 24.27 12.24 22.92 12.06 21.5H10.06ZM15.1 26.87L13.67 28.24C15.18 29.5 17.04 30.29 19 30.5V28.5C17.58 28.32 16.23 27.75 15.1 26.87Z" fill="#FFAE41"/>
</svg>
