<svg width="16" height="16" viewBox="0 0 16 16" fill="none" xmlns="http://www.w3.org/2000/svg">
<path d="M6.70014 1.68669L2.6868 4.30669C1.40014 5.14669 1.40014 7.02669 2.6868 7.86669L6.70014 10.4867C7.42014 10.96 8.6068 10.96 9.3268 10.4867L13.3201 7.86669C14.6001 7.02669 14.6001 5.15336 13.3201 4.31336L9.3268 1.69336C8.6068 1.21336 7.42014 1.21336 6.70014 1.68669Z" stroke="#6E6D71" stroke-linecap="round" stroke-linejoin="round"/>
<path d="M3.75362 8.72003L3.74695 11.8467C3.74695 12.6934 4.40028 13.6 5.20028 13.8667L7.32695 14.5734C7.69361 14.6934 8.30028 14.6934 8.67362 14.5734L10.8003 13.8667C11.6003 13.6 12.2536 12.6934 12.2536 11.8467V8.75337" stroke="#6E6D71" stroke-linecap="round" stroke-linejoin="round"/>
<path d="M14.2668 10V6" stroke="#6E6D71" stroke-linecap="round" stroke-linejoin="round"/>
</svg>
