<svg width="77" height="77" viewBox="0 0 77 77" fill="none" xmlns="http://www.w3.org/2000/svg">
<path d="M11.7086 23.6936C11.7086 22.0042 13.0782 20.6346 14.7677 20.6346H66.563C68.252 20.6346 69.6218 22.0042 69.6218 23.6936V57.6367C69.6218 59.3261 68.252 60.6955 66.563 60.6955H14.7677C13.0782 60.6955 11.7086 59.3261 11.7086 57.6367V23.6936Z" fill="black"/>
<path d="M8.9292 20.9143C8.9292 19.2248 10.2988 17.8552 11.9882 17.8552H63.7834C65.473 17.8552 66.8423 19.2248 66.8423 20.9143V54.8573C66.8423 56.5467 65.473 57.9163 63.7834 57.9163H11.9882C10.2988 57.9163 8.9292 56.5467 8.9292 54.8573V20.9143Z" fill="white"/>
<path fill-rule="evenodd" clip-rule="evenodd" d="M11.9883 16.8356H63.7835C66.0361 16.8356 67.8622 18.6616 67.8622 20.9142V54.8572C67.8622 57.1099 66.0361 58.9359 63.7835 58.9359H11.9883C9.73579 58.9359 7.90967 57.1099 7.90967 54.8572V20.9142C7.90967 18.6616 9.73573 16.8356 11.9883 16.8356ZM11.9883 17.8552C10.2989 17.8552 8.92931 19.2248 8.92931 20.9142V54.8572C8.92931 56.5467 10.2989 57.9163 11.9883 57.9163H63.7835C65.4731 57.9163 66.8424 56.5467 66.8424 54.8572V20.9142C66.8424 19.2248 65.4731 17.8552 63.7835 17.8552H11.9883Z" fill="black"/>
<path d="M12.5181 27.3521C12.5181 26.2258 13.4312 25.3127 14.5574 25.3127H38.2717C39.398 25.3127 40.3111 26.2258 40.3111 27.3521V40.2218C40.3111 41.3481 39.398 42.2611 38.2717 42.2611H14.5574C13.4312 42.2611 12.5181 41.3481 12.5181 40.2218V27.3521Z" fill="black"/>
<path fill-rule="evenodd" clip-rule="evenodd" d="M12.122 44.7835C12.1194 44.2203 12.5739 43.7618 13.137 43.7592L39.3667 43.6412C39.9298 43.6386 40.3884 44.0931 40.3909 44.6563C40.3934 45.2194 39.939 45.678 39.3759 45.6805L13.1462 45.7986C12.583 45.8011 12.1245 45.3466 12.122 44.7835Z" fill="black"/>
<path fill-rule="evenodd" clip-rule="evenodd" d="M12.2844 47.7158C12.2844 47.4343 12.5127 47.2061 12.7943 47.2061H32.9442C33.2258 47.2061 33.4541 47.4343 33.4541 47.7158C33.4541 47.9975 33.2258 48.2257 32.9442 48.2257H12.7943C12.5127 48.2257 12.2844 47.9975 12.2844 47.7158Z" fill="black"/>
<path fill-rule="evenodd" clip-rule="evenodd" d="M12.2844 52.7855C12.2844 52.5039 12.5127 52.2757 12.7943 52.2757H32.9442C33.2258 52.2757 33.4541 52.5039 33.4541 52.7855C33.4541 53.0671 33.2258 53.2953 32.9442 53.2953H12.7943C12.5127 53.2953 12.2844 53.0671 12.2844 52.7855Z" fill="black"/>
<path fill-rule="evenodd" clip-rule="evenodd" d="M12.2844 49.6154C12.2844 49.3338 12.5127 49.1056 12.7943 49.1056H23.1298C23.4114 49.1056 23.6396 49.3338 23.6396 49.6154C23.6396 49.897 23.4114 50.1252 23.1298 50.1252H12.7943C12.5127 50.1252 12.2844 49.897 12.2844 49.6154Z" fill="black"/>
<path fill-rule="evenodd" clip-rule="evenodd" d="M12.2844 54.3489C12.2844 54.0673 12.5127 53.8391 12.7943 53.8391H20.3505C20.6321 53.8391 20.8603 54.0673 20.8603 54.3489C20.8603 54.6305 20.6321 54.8588 20.3505 54.8588H12.7943C12.5127 54.8588 12.2844 54.6305 12.2844 54.3489Z" fill="black"/>
<path fill-rule="evenodd" clip-rule="evenodd" d="M55.6239 26.2678C55.6239 25.9863 55.8521 25.7581 56.1338 25.7581H64.5149C64.7967 25.7581 65.0251 25.9863 65.0251 26.2678C65.0251 26.5495 64.7967 26.7777 64.5149 26.7777H56.1338C55.8521 26.7777 55.6239 26.5495 55.6239 26.2678Z" fill="black"/>
<path fill-rule="evenodd" clip-rule="evenodd" d="M55.6243 28.3477C55.6243 28.0661 55.8525 27.8378 56.1341 27.8378H60.7092C60.991 27.8378 61.2188 28.0661 61.2188 28.3477C61.2188 28.6292 60.991 28.8575 60.7092 28.8575H56.1341C55.8525 28.8575 55.6243 28.6292 55.6243 28.3477Z" fill="black"/>
<path fill-rule="evenodd" clip-rule="evenodd" d="M55.6239 46.9235C55.6239 46.6419 55.8521 46.4136 56.1338 46.4136H64.5149C64.7967 46.4136 65.0251 46.6419 65.0251 46.9235C65.0251 47.205 64.7967 47.4333 64.5149 47.4333H56.1338C55.8521 47.4333 55.6239 47.205 55.6239 46.9235Z" fill="black"/>
<path fill-rule="evenodd" clip-rule="evenodd" d="M55.6243 49.0033C55.6243 48.7217 55.8525 48.4934 56.1341 48.4934H60.7092C60.991 48.4934 61.2188 48.7217 61.2188 49.0033C61.2188 49.2848 60.991 49.513 60.7092 49.513H56.1341C55.8525 49.513 55.6243 49.2848 55.6243 49.0033Z" fill="black"/>
<path fill-rule="evenodd" clip-rule="evenodd" d="M55.6239 35.8061C55.6239 35.5244 55.8521 35.2962 56.1338 35.2962H64.5149C64.7967 35.2962 65.0251 35.5244 65.0251 35.8061C65.0251 36.0876 64.7967 36.3158 64.5149 36.3158H56.1338C55.8521 36.3158 55.6239 36.0876 55.6239 35.8061Z" fill="black"/>
<path fill-rule="evenodd" clip-rule="evenodd" d="M55.6243 37.8858C55.6243 37.6042 55.8525 37.376 56.1341 37.376H60.7092C60.991 37.376 61.2188 37.6042 61.2188 37.8858C61.2188 38.1674 60.991 38.3956 60.7092 38.3956H56.1341C55.8525 38.3956 55.6243 38.1674 55.6243 37.8858Z" fill="black"/>
<path fill-rule="evenodd" clip-rule="evenodd" d="M44.5443 24.7272H52.8127C53.939 24.7272 54.852 25.6403 54.852 26.7666V32.1197C54.852 33.246 53.939 34.159 52.8127 34.159H44.5443C43.418 34.159 42.505 33.246 42.505 32.1197V26.7666C42.505 25.6403 43.418 24.7272 44.5443 24.7272ZM44.5443 25.7469C43.9812 25.7469 43.5246 26.2034 43.5246 26.7666V32.1197C43.5246 32.6828 43.9812 33.1393 44.5443 33.1393H52.8127C53.3758 33.1393 53.8324 32.6828 53.8324 32.1197V26.7666C53.8324 26.2034 53.3759 25.7469 52.8127 25.7469H44.5443Z" fill="black"/>
<path d="M28.9048 32.9861L26.4637 31.2423C25.7888 30.7603 24.8513 31.2427 24.8513 32.0721V35.5246C24.8513 36.3495 25.7799 36.833 26.4557 36.3599L28.8968 34.6512C29.4733 34.2476 29.4774 33.3952 28.9048 32.9861Z" fill="white"/>
<path fill-rule="evenodd" clip-rule="evenodd" d="M13.0887 20.1241H62.8158C63.6939 20.1241 64.4058 20.8361 64.4058 21.7143C64.4058 22.5926 63.6939 23.3046 62.8158 23.3046H13.0887C12.2104 23.3046 11.4984 22.5926 11.4984 21.7143C11.4984 20.8361 12.2104 20.1241 13.0887 20.1241ZM13.0887 21.1437C12.7735 21.1437 12.5181 21.3992 12.5181 21.7143C12.5181 22.0294 12.7735 22.2849 13.0887 22.2849H62.8158C63.1309 22.2849 63.386 22.0294 63.386 21.7143C63.386 21.3992 63.1309 21.1437 62.8158 21.1437H13.0887Z" fill="black"/>
<path fill-rule="evenodd" clip-rule="evenodd" d="M44.5443 34.6581H52.8127C53.939 34.6581 54.852 35.5711 54.852 36.6974V42.0505C54.852 43.1768 53.939 44.0899 52.8127 44.0899H44.5443C43.418 44.0899 42.505 43.1768 42.505 42.0505V36.6974C42.505 35.5711 43.418 34.6581 44.5443 34.6581ZM44.5443 35.6777C43.9812 35.6777 43.5246 36.1343 43.5246 36.6974V42.0505C43.5246 42.6137 43.9812 43.0702 44.5443 43.0702H52.8127C53.3758 43.0702 53.8324 42.6137 53.8324 42.0505V36.6974C53.8324 36.1343 53.3759 35.6777 52.8127 35.6777H44.5443Z" fill="black"/>
<path fill-rule="evenodd" clip-rule="evenodd" d="M44.5443 45.2268H52.8127C53.939 45.2268 54.852 46.1398 54.852 47.2661V52.6193C54.852 53.7456 53.939 54.6586 52.8127 54.6586H44.5443C43.418 54.6586 42.505 53.7455 42.505 52.6193V47.2661C42.505 46.1398 43.418 45.2268 44.5443 45.2268ZM44.5443 46.2464C43.9812 46.2464 43.5246 46.703 43.5246 47.2661V52.6193C43.5246 53.1824 43.9812 53.6389 44.5443 53.6389H52.8127C53.3758 53.6389 53.8324 53.1824 53.8324 52.6193V47.2661C53.8324 46.703 53.3759 46.2464 52.8127 46.2464H44.5443Z" fill="black"/>
<path fill-rule="evenodd" clip-rule="evenodd" d="M48.2405 29.8511C48.2405 30.0573 48.4727 30.1782 48.6416 30.06L49.3544 29.561C49.4985 29.4601 49.4995 29.247 49.3564 29.1447L48.6436 28.6356C48.4749 28.515 48.2405 28.6356 48.2405 28.843V29.8511ZM49.2363 27.8059L49.9491 28.315C50.6649 28.8263 50.6598 29.8919 49.9392 30.3963L49.2263 30.8953C48.3816 31.4866 47.2208 30.8823 47.2208 29.8511V28.843C47.2208 27.8063 48.3927 27.2032 49.2363 27.8059Z" fill="black"/>
<path fill-rule="evenodd" clip-rule="evenodd" d="M48.2405 40.1756C48.2405 40.3819 48.4727 40.5027 48.6416 40.3844L49.3544 39.8855C49.4985 39.7846 49.4995 39.5715 49.3564 39.4693L48.6436 38.9601C48.4749 38.8396 48.2405 38.9602 48.2405 39.1675V40.1756ZM49.2363 38.1304L49.9491 38.6395C50.6649 39.1508 50.6598 40.2164 49.9392 40.7209L49.2263 41.2198C48.3816 41.8112 47.2208 41.2068 47.2208 40.1756V39.1675C47.2208 38.1308 48.3927 37.5277 49.2363 38.1304Z" fill="black"/>
<path fill-rule="evenodd" clip-rule="evenodd" d="M48.2405 50.6091C48.2405 50.8153 48.4727 50.9361 48.6416 50.8179L49.3544 50.319C49.4985 50.218 49.4995 50.0049 49.3564 49.9027L48.6436 49.3935C48.4749 49.273 48.2405 49.3936 48.2405 49.6009V50.6091ZM49.2363 48.5638L49.9491 49.0729C50.6649 49.5843 50.6598 50.6498 49.9392 51.1543L49.2263 51.6532C48.3816 52.2446 47.2208 51.6402 47.2208 50.6091V49.6009C47.2208 48.5642 48.3927 47.9612 49.2363 48.5638Z" fill="black"/>
</svg>
